<svg width="120" height="120" viewBox="0 0 282 292" fill="none" xmlns="http://www.w3.org/2000/svg">
<path d="M207.825 138.493C207.825 138.493 234.776 148.89 238.271 152.395C241.765 155.901 246.439 166.068 249.202 182.712C251.965 199.355 250.884 244.731 249.202 257.443C247.52 270.144 242.3 278.531 238.948 281.895C235.595 285.259 230.692 283.162 230.692 283.162C230.845 285.761 231.129 289.234 231.588 291.036H139.157C141.745 284.483 143.067 275.19 140.075 261.888C138.294 268.823 134.865 279.176 130.77 282.277C127.254 284.942 119.402 284.494 120.112 280.202C126.5 275.441 120.057 258.47 110.393 260.938C118.747 252.583 114.717 221.961 114.717 202.533C114.717 183.105 122.231 167.269 124.524 163.174C126.817 159.079 141.407 152.624 141.407 152.624L207.825 138.504V138.493Z" fill="#32CD32"/>
<path d="M0.0109193 198.062L1.95456 195.147C2.23846 194.72 2.70799 194.468 3.2212 194.457L55.3281 193.69C56.3873 193.679 57.4028 194.117 58.1125 194.895L119.086 261.497C119.468 261.913 119.534 262.538 119.25 263.031L117.524 265.946L56.8568 199.06C56.1034 198.238 55.0333 197.766 53.9195 197.766L0 198.062H0.0109193Z" fill="#32CD32"/>
<path d="M0.200728 199.841L64.531 263.012C65.065 263.536 65.7735 263.852 66.5256 263.896L116.708 266.949C117.307 266.982 117.645 266.273 117.242 265.837L56.9229 200.059C56.1273 199.198 55.0155 198.707 53.8383 198.707H0.669417C0.0699316 198.707 -0.224361 199.427 0.200728 199.852V199.841Z" fill="#32CD32"/>
<path d="M55.5494 232.452C57.1043 231.234 56.6776 228.093 54.5964 225.434C52.5151 222.776 49.5674 221.608 48.0125 222.826C46.4575 224.043 46.8842 227.185 48.9654 229.843C51.0467 232.502 53.9944 233.669 55.5494 232.452Z" fill="#FBD300"/>
<path d="M15.9028 207.552C16.9012 206.63 16.4317 204.498 14.8543 202.79C13.2769 201.081 11.1888 200.444 10.1905 201.366C9.19216 202.288 9.66162 204.42 11.239 206.128C12.8165 207.836 14.9045 208.474 15.9028 207.552Z" fill="#32CD32"/>
<path d="M194.693 129.567C194.693 129.567 185.567 126.654 170.87 130.266C156.174 133.879 149.532 141.727 149.532 141.727C151.469 152.671 157.564 162.938 167.347 172.614L194.693 129.557V129.567Z" fill="#32CD32"/>
<path d="M150.536 129.625C150.536 129.625 157.726 140.474 156.795 147.901C155.864 155.328 151.738 159.707 151.738 159.707C151.738 159.707 148.37 176.267 166.541 177.599C184.712 178.93 199.711 140.243 199.711 140.243C199.711 140.243 193.181 139.539 182.46 129.625C171.739 119.711 170.656 95.3393 170.656 95.3393L164.83 96.8687L150.536 129.625Z" fill="#703D22"/>
<path d="M110.393 74.9532C110.393 74.9532 111.429 85.6014 112.661 90.2023C113.893 94.8031 118.037 100.013 118.037 100.013C118.037 100.013 117.884 105.995 120.032 111.814C122.18 117.633 130.631 126.378 133.096 128.825C135.56 131.272 139.551 136.178 146.159 133.883C152.767 131.588 162.45 122.691 165.525 115.795C168.6 108.899 168.6 105.68 168.6 97.2503C168.6 88.8209 160.607 63.8373 153.541 60.7701C146.475 57.7029 132.801 56.5935 122.039 61.9992C111.287 67.4049 110.404 74.9532 110.404 74.9532H110.393Z" fill="#915131"/>
<path d="M149.423 81.6665C148.85 81.4372 145.275 79.8207 141.655 80.4168C138.035 81.013 130.278 87.6623 128.98 88.5107C127.682 89.3591 129.002 90.9641 130.741 90.0469C132.479 89.1298 139.3 82.469 142.392 81.9531C145.484 81.4372 149.753 82.4346 150.347 82.4346C150.941 82.4346 149.995 81.8958 149.423 81.6665Z" fill="black"/>
<path d="M122.171 89.9652C123.407 90.9544 123.948 91.8217 122.832 91.8217C121.521 91.8217 116.95 89.7213 114.88 90.4937C113.57 90.9815 113.223 92.2959 113.223 92.2959C112.768 92.5805 112.085 90.9409 112.562 89.8704C112.562 89.8704 113.212 88.7999 114.133 88.4747C115.812 87.8785 121.099 89.0709 122.182 89.9788L122.171 89.9652Z" fill="black"/>
<path d="M124.443 93.3321C124.443 93.3321 125.608 94.4617 126.219 96.6671C126.829 98.8725 127.14 105.693 127.14 109.136C127.14 112.578 129.093 114.407 131.035 114.407C132.977 114.407 133.987 112.116 135.696 111.223C137.405 110.33 138.493 110.179 138.493 108.2C138.493 105.446 134.198 105.36 134.198 105.36" stroke="#031001" stroke-width="0.75" stroke-linecap="round" stroke-linejoin="round"/>
<path d="M109.877 77.398C109.877 77.398 107.382 74.6347 107.382 66.7709C107.382 62.3039 110.848 56.5589 115.728 51.4693C115.728 49.3614 118.973 46.3688 121.391 46.3688C123.168 43.54 126.049 42.1857 128.412 41.8689C121.866 38.4613 124.703 33.4372 124.703 33.4372C121.689 33.4372 121.866 25.7263 125.553 25.7263C122.484 22.69 125.277 14.4986 130.399 16.1478C127.429 9.54003 135.477 5.05112 137.961 7.49763C136.327 1.03185 146.958 -3.55536 150.611 3.68588C151.881 -1.16346 160.006 -0.540909 160.889 4.71254C164.444 -1.57849 175.461 4.51594 172.138 9.98783C176.553 6.54742 182.459 13.8979 178.441 17.8844C184.921 16.6065 186.555 27.5394 181.841 28.293C187.173 29.8985 184.612 38.4831 181.356 37.38C184.535 40.5255 181.907 48.8917 174.489 45.637C174.489 45.637 177.039 46.3469 177.459 49.7546C179.6 50.6065 181.455 53.7848 180.627 56.5589C182.691 56.5589 185.782 61.8233 184.027 65.22C187.217 67.1532 186.279 73.062 185.164 74.591C187.946 75.9126 188.376 80.7292 186.621 82.4657C188.763 83.973 186.71 91.4763 184.226 91.6511C184.226 94.8731 182.095 98.3244 178.397 98.4991C172.877 103.534 168.793 96.7407 168.793 96.7407L165.735 81.8541C165.735 81.8541 165.073 85.513 163.781 90.0237C162.49 94.5345 160.149 93.7809 160.149 93.7809C160.149 93.7809 159.189 77.6055 156.341 72.1773C153.493 66.7491 148.271 61.1789 139.981 62.0199C131.69 62.8609 120.287 61.6049 120.287 61.6049C120.287 61.6049 118.322 64.1169 114.999 65.078C111.676 66.0392 109.866 77.387 109.866 77.387L109.877 77.398Z" fill="#031001"/>
<path d="M194.61 129.461C200.856 135.068 205.083 138.051 207.739 138.966C207.739 138.966 176.794 172.762 171.678 201.973C166.563 231.185 177.189 291.036 177.189 291.036H164.675C164.675 291.036 153.555 223.804 159.12 195.637C164.686 167.47 194.61 129.461 194.61 129.461Z" fill="#C9EBDF"/>
<path d="M149.8 141.504C146.149 147.734 143.427 151.445 141.504 152.936C143.919 168.058 152.817 178.684 161.169 189.675L167.596 173.25C160.874 165.33 153.583 159.376 149.8 141.515V141.504Z" fill="#C9EBDF"/>
<path d="M211.576 252.985C211.576 252.985 164.069 256.259 154.466 254.058C144.864 251.857 137.237 246.863 131.607 242.614C125.977 238.365 117.176 234.883 114.52 236.077C113.017 236.756 110.35 240.14 107.903 242.647C106.048 244.553 104.018 245.67 104.424 246.436C105.357 248.21 107.848 247.345 107.848 247.345C108.045 248.408 108.923 248.867 109.768 248.944C111.14 249.065 112.797 248.616 112.797 248.616C112.797 248.616 113.873 250.171 116.792 250.171C119.711 250.171 123.256 248.539 124.869 249.645C126.482 250.751 127.371 252.12 130.06 255.832C132.748 259.545 138.367 266.51 143.185 267.199C148.002 267.889 153.852 264.9 153.852 264.9L211.565 275.982C216.415 273.682 217.875 257.99 211.565 252.985H211.576Z" fill="#915131"/>
<path d="M135.482 251.896C129.568 247.218 126.008 243.868 122.858 243.868C121.023 243.868 118.348 245.756 113.207 246.792C112.323 246.792 112.091 247.766 112.887 248.631" stroke="#743A26" stroke-width="0.5" stroke-miterlimit="10" stroke-linecap="round"/>
<path d="M133.475 245.782C125.401 241.918 121.675 238.434 119.351 238.89C116.974 239.151 115.786 240.996 113.451 242.657C111.674 243.926 109.19 245.099 108.901 245.402C108.226 246.086 108.408 246.879 108.408 246.879" stroke="#743A26" stroke-width="0.5" stroke-miterlimit="10" stroke-linecap="round"/>
<path d="M111.386 238.85C111.386 238.85 106.808 241.396 103.518 241.965C100.227 242.535 101.166 244.5 103.254 244.824C105.342 245.147 107.104 243.718 107.104 243.718C108.148 242.635 109.635 240.938 111.396 238.85H111.386Z" fill="#703D22"/>
<path d="M126.45 177.632C126.45 177.632 130.301 189.933 130.301 195.655C130.301 201.377 126.45 206.462 126.45 218.345C126.45 230.229 135.118 236.708 136.377 241.805C136.828 243.628 137.489 246.879 137.489 246.879" stroke="#32CD32" stroke-width="0.75" stroke-linecap="round" stroke-linejoin="round"/>
<path d="M233.832 158.564C224.8 165.248 215.768 179.106 215.768 196.954C215.768 214.802 218.807 246.879 218.807 246.879" stroke="#32CD32" stroke-width="0.75" stroke-linecap="round" stroke-linejoin="round"/>
<path d="M206.736 252.858C206.736 252.858 207.305 249.248 209.418 248.252C211.53 247.255 212.8 246.879 219.707 246.879C226.615 246.879 234.091 256.058 234.836 265.946" stroke="#32CD32" stroke-width="0.75" stroke-linecap="round" stroke-linejoin="round"/>
<path d="M207.739 275.982C207.739 275.982 207.838 277.756 210.01 279.996C212.182 282.237 221.154 281.623 230.821 284.011" stroke="#32CD32" stroke-width="0.75" stroke-linecap="round" stroke-linejoin="round"/>
<path d="M123.58 280.978C123.58 280.978 119.927 281.272 112.192 278.668L72.8211 265.458C72.8211 265.458 70.4472 266.003 66.0933 264.957C61.7394 263.911 57.1338 260.227 55.5695 260.227C54.0051 260.227 49.2574 260.804 47.5946 260.804C45.9318 260.804 44.8378 256.477 45.3957 255.922C44.3127 255.366 44.1596 253.84 44.1596 253.84C42.9234 252.608 42.1576 250.145 42.1576 248.641C40.637 245.982 39.8166 242.832 40.2651 241.568C40.2651 241.568 41.2934 238.887 42.6499 235.955C44.0064 233.023 44.433 229.121 45.527 228.838C46.6209 228.555 47.5836 230.876 47.5836 233.078C47.5836 235.279 45.3848 241.579 45.3848 241.579C45.3848 241.579 51.5328 240.096 54.027 239.355C56.5212 238.614 57.462 237.829 58.2825 238.636C59.1029 239.443 58.2825 241.568 58.2825 241.568C58.2825 241.568 61.2033 239.977 61.991 241.568C62.7786 243.159 61.2799 244.892 59.4092 245.938C57.5386 246.985 51.0515 249.993 50.6029 250.843C50.1544 251.693 50.6029 253.578 50.6029 253.578C50.6029 253.578 56.554 250.843 58.1512 250.843C59.7484 250.843 60.6563 252.456 59.8031 253.306C58.9498 254.156 57.0463 254.952 57.0463 254.952L65.0212 262.603L118.209 265.818L120.145 263.017C126.086 266.799 129.017 277.61 123.58 281V280.978Z" fill="#915131"/>
<path d="M146.521 114.418C142.109 116.451 138.493 116.681 137.392 117.337C136.292 117.993 135.757 119.905 135.757 119.905C135.757 119.905 132.099 119.009 131.313 118.976C130.527 118.944 130.464 120.441 130.464 120.441C130.464 120.441 135.328 124.475 139.436 123.185C143.241 121.993 145.997 115.347 145.997 115.347L146.521 114.407V114.418Z" fill="#5B1A0B"/>
<path d="M164.586 83.9276C164.586 83.9276 166.082 76.1319 170.373 75.3612C174.664 74.5906 178.636 78.656 178.636 85.1338C178.636 91.6117 175.423 98.0896 172.419 99.8431C169.416 101.597 167.061 98.3018 167.061 98.3018C166.918 93.2758 166.159 88.4621 164.597 83.9165L164.586 83.9276Z" fill="#915131"/>
<path d="M147.644 91.4441C147.644 91.4441 139.164 92.848 137.623 93.2063C136.081 93.5645 135.354 93.7678 134.659 94.7748C133.964 95.7818 134.518 97.544 134.518 97.544C134.518 97.544 137.069 98.4541 139.154 97.97C141.238 97.4859 141.271 97.0986 143.127 95.9367C144.984 94.7748 147.644 91.4538 147.644 91.4538V91.4441Z" fill="white"/>
<path d="M150.368 90.3214C150.368 90.3214 146.267 90.9726 143.017 91.3307C139.767 91.6889 136.417 92.2641 134.714 93.4362C133.01 94.6083 133.559 97.4626 133.559 97.4626C133.873 98.1029 134.68 98.7107 134.68 98.0921C134.68 98.0921 134.064 96.0517 135.565 94.7168C137.324 93.1432 144.059 92.5354 147.802 91.6129C151.544 90.6904 150.357 90.3323 150.357 90.3323L150.368 90.3214Z" fill="black"/>
<path d="M135.506 97.6024C135.506 97.6024 138.216 97.9637 140.742 96.9477C143.268 95.9317 147.317 91.258 147.468 91.3257C147.619 91.3935 147.446 91.6644 147.241 91.9466C147.036 92.2289 144.38 96.18 141.184 97.625C137.989 99.07 135.851 97.9298 135.635 97.8056C135.419 97.6815 135.495 97.6137 135.495 97.6137L135.506 97.6024Z" fill="black"/>
<path d="M139.614 92.3286C139.614 92.3286 140.593 92.618 141.231 93.6913C141.869 94.7646 141.402 96.7664 139.682 97.2126C137.713 97.7312 136.414 96.6338 135.891 95.7776C135.242 94.7284 135.56 93.4019 135.56 93.4019L139.625 92.3286H139.614Z" fill="black"/>
<path d="M133.552 96.3429C133.552 96.3429 133.048 93.3558 134.614 91.632C136.18 89.9082 144.514 88.3143 144.514 88.3143" stroke="#031001" stroke-width="0.75" stroke-linecap="round" stroke-linejoin="round"/>
<path d="M124.307 97.6356C124.307 97.6356 121.538 96.2068 119.189 96.2068C116.841 96.2068 115.734 96.6831 115.734 96.6831C117.088 98.904 118.043 101.242 119.768 102.228C119.768 102.228 121.789 101.646 122.597 100.767C123.405 99.8885 124.783 98.1119 124.783 98.1119L124.307 97.6356Z" fill="white"/>
<path d="M125.446 98.042C123.574 96.2053 121.559 95.1681 118.629 95.3625C116.856 95.4706 115.545 96.0648 114.686 96.3025C113.827 96.5402 115.16 97.2317 115.887 97.0804C116.614 96.9292 117.627 96.4646 119.411 96.4646C122.319 96.4646 124.224 97.9664 124.224 97.9664C124.224 97.9664 125.446 98.7767 125.446 98.042Z" fill="black"/>
<path d="M124.268 98.4274C122.947 100.713 121.216 101.653 120.186 101.793C119.155 101.932 118.565 101.793 118.565 101.793C118.294 101.717 118.425 101.996 118.805 102.148C119.185 102.301 119.395 102.364 120.306 102.364C121.867 102.364 124.118 100.078 124.428 98.6306C124.468 98.4401 124.428 98.2242 124.268 98.4401V98.4274Z" fill="black"/>
<path d="M117.453 96.4614C117.453 96.4614 117.2 97.6168 118.056 98.8114C118.912 100.006 119.944 100.505 121.174 100.319C122.403 100.133 122.513 98.9093 122.403 98.4687C122.293 98.028 121.975 97.0783 120.855 96.6866C119.341 96.0795 119.132 96.4614 119.132 96.4614H117.453Z" fill="black"/>
<path d="M57.2036 241.861C52.7543 243.833 48.1491 244.431 46.8704 245.794C45.5917 247.156 45.1967 250.447 44.1572 253.904" stroke="#743A26" stroke-width="0.5" stroke-miterlimit="10" stroke-linecap="round"/>
<path d="M45.1607 241.861C45.1607 241.861 44.3992 242.1 44.0009 242.641C43.4503 243.358 42.15 247.882 42.15 247.882" stroke="#743A26" stroke-width="0.5" stroke-miterlimit="10" stroke-linecap="round"/>
<path d="M50.1786 253.904L45.1607 255.911" stroke="#743A26" stroke-width="0.5" stroke-miterlimit="10" stroke-linecap="round"/>
<path d="M56.2 254.907C56.2 254.907 53.5571 256.378 52.1857 256.914" stroke="#743A26" stroke-width="0.5" stroke-miterlimit="10" stroke-linecap="round"/>
<path d="M166.593 173.618C164.385 178.48 162.659 182.506 160.571 188.671" stroke="#32CD32" stroke-width="0.75" stroke-linecap="round" stroke-linejoin="round"/>
<path d="M40.1428 291.036H281" stroke="black" stroke-width="0.75" stroke-linecap="round" stroke-linejoin="round"/>
<path d="M115.703 51.4698C112.382 49.7551 104.15 56.0385 105.717 61.5142C102.859 60.7952 99.3166 64.5785 100.31 68.8816C96.2269 68.8816 94.2517 79.8664 99.5704 81.3819C98.6214 83.6386 101.579 87.8312 105.055 87.8312C103.642 92.2007 109.855 94.6123 112.823 92.1343C111.753 80.2204 111.742 69.6781 115.902 66.6581C114.456 69.8662 114.953 73.0189 117.612 74.468C115.891 76.6694 117.612 80.5633 120.272 80.5633C119.631 82.8421 123.24 86.3709 126.782 84.5678C128.04 87.5546 134.076 88.152 135.168 85.4085C138.644 88.163 141.591 85.8842 141.591 82.4881C143.61 81.7691 143.5 78.4394 141.315 77.3774C142.551 74.0809 139.704 73.1738 138.666 72.1339C137.839 71.3043 138.059 68.3838 139.031 67.4214C139.538 70.8286 141.392 72.8862 145.828 72.3884C145.828 76.5367 149.944 78.727 154.424 76.6915C152.68 79.5345 152.747 83.7935 157.216 85.4085C154.391 88.2073 156.002 94.3357 160.107 94.3357L162.579 66.1493L145.508 54.9765L115.703 51.4698Z" fill="#031001"/>
<path d="M174.733 79.397C174.733 79.397 173.635 78.2786 171.156 78.2786C168.677 78.2786 167.614 83.0182 167.614 84.2031C167.614 85.3881 167.437 88.2784 168.204 89.0092C168.972 89.7401 168.972 89.574 170.2 89.574C171.569 89.574 171.746 90.615 171.746 91.7224C171.746 92.8298 170.318 94.5684 170.318 94.5684C170.318 94.5684 171.062 95.6425 172.478 95.255C173.895 94.8674 174.745 93.915 175.04 92.6415C175.336 91.368 175.56 89.7733 173.824 88.1455C172.809 87.1931 170.955 87.7911 170.011 85.3881C169.066 82.985 170.389 80.2387 171.864 79.7403C173.34 79.242 175.158 80.5487 175.548 80.5487C175.938 80.5487 174.722 79.4081 174.722 79.4081L174.733 79.397Z" fill="#743A26"/>
<path d="M116.414 94.6523C116.414 94.6523 118.722 93.9399 120.774 94.6523C122.827 95.3647 124.443 97.3464 124.443 97.3464" stroke="#031001" stroke-width="0.75" stroke-linecap="round" stroke-linejoin="round"/>
<path d="M134.479 123.775C134.479 123.775 135.852 121.141 137.344 120.926C138.836 120.711 139.82 120.926 139.82 120.926C139.82 120.926 141.344 118.421 143.334 118.421H145.518C145.518 118.421 143.907 122.614 140.458 123.904C137.009 125.194 134.479 123.764 134.479 123.764V123.775Z" fill="#4F1107"/>
<path d="M147.525 114.419C142.837 116.588 138.995 116.833 137.825 117.533C136.656 118.233 136.088 120.275 136.088 120.275C136.088 120.275 132.202 119.318 131.366 119.283C130.531 119.248 130.464 120.846 130.464 120.846C130.464 120.846 132.803 122.188 137.168 120.811C141.211 119.54 146.322 115.445 146.322 115.445L147.525 114.407V114.419Z" fill="#E5E1DF"/>
<path d="M146.692 115.258C146.692 115.258 141.586 121.313 137.27 122.311C133.878 123.096 131.451 122.035 131.451 122.035C131.451 122.035 135.074 124.879 138.764 124.179C142.453 123.478 146.454 116.785 147.168 115.734C147.882 114.683 146.692 115.258 146.692 115.258Z" fill="#E5E1DF"/>
<path d="M149.438 113.088C148.914 113.654 147.265 115.377 144.676 116.698C142.088 118.02 140.166 117.89 139.129 118.539C138.091 119.188 138.037 120.179 136.672 120.817C135.307 121.454 133.548 120.852 132.413 120.852C131.277 120.852 131.616 121.82 130.578 122.209C129.541 122.598 127.804 122.492 128.711 121.843C129.617 121.194 130.316 118.775 131.91 118.775C133.505 118.775 134.302 119.495 135.165 119.495C136.027 119.495 136.027 117.147 137.327 116.521C138.626 115.896 141.815 115.566 143.748 115.058C145.681 114.551 147.647 112.934 148.007 112.557C148.367 112.179 149.951 112.533 149.427 113.099L149.438 113.088Z" fill="#7F2813"/>
<path d="M146.8 115.296C146.8 115.296 144.211 122.243 139.556 123.612C134.901 124.981 131.863 120.985 131.863 120.985L130.464 121.419C133.305 122.699 134.311 127.898 140.474 126.061C146.636 124.224 146.101 118.93 149.073 113.353C147.794 113.586 146.811 115.307 146.811 115.307L146.8 115.296Z" fill="#7F2813"/>
</svg>
