<svg width="120" height="120" viewBox="0 0 36 36" fill="none" xmlns="http://www.w3.org/2000/svg">
<g clip-path="url(#clip0_114_2)">
<path d="M34.247 6.324L31.505 9.067C31.505 9.067 29.676 9.981 27.848 8.152C26.019 6.324 26.933 4.495 26.933 4.495L29.676 1.752C30.591 0.838 29.492 6.81912e-08 28.667 6.81912e-08C27.704 -0.000131265 26.7503 0.189445 25.8605 0.557904C24.9707 0.926363 24.1622 1.46649 23.4812 2.14743C22.8001 2.82838 22.2599 3.63681 21.8913 4.52655C21.5227 5.4163 21.333 6.36993 21.333 7.333C21.333 7.902 21.405 8.454 21.527 8.986L15.328 15.185L20.813 20.67L27.012 14.472C27.5543 14.5988 28.1091 14.6639 28.666 14.666C29.629 14.666 30.5826 14.4763 31.4722 14.1078C32.3619 13.7393 33.1703 13.1991 33.8512 12.5182C34.5322 11.8373 35.0723 11.0289 35.4408 10.1392C35.8093 9.24954 35.999 8.29598 35.999 7.333C36 6.503 35.161 5.41 34.247 6.324ZM15.22 15.364L3.03102 27.552C2.31308 28.2705 1.90979 29.2447 1.90979 30.2605C1.90979 31.2763 2.31308 32.2505 3.03102 32.969C3.74957 33.6869 4.72377 34.0902 5.73952 34.0902C6.75528 34.0902 7.72948 33.6869 8.44802 32.969L20.635 20.781L15.22 15.364ZM5.76302 31.838C5.56841 31.838 5.37569 31.7997 5.19589 31.7252C5.01608 31.6507 4.85271 31.5415 4.71509 31.4039C4.57748 31.2663 4.46831 31.1029 4.39383 30.9231C4.31936 30.7433 4.28102 30.5506 4.28102 30.356C4.28102 30.1614 4.31936 29.9687 4.39383 29.7889C4.46831 29.6091 4.57748 29.4457 4.71509 29.3081C4.85271 29.1705 5.01608 29.0613 5.19589 28.9868C5.37569 28.9123 5.56841 28.874 5.76302 28.874C6.15608 28.874 6.53303 29.0301 6.81096 29.3081C7.08889 29.586 7.24502 29.963 7.24502 30.356C7.24502 30.7491 7.08889 31.126 6.81096 31.4039C6.53303 31.6819 6.15608 31.838 5.76302 31.838Z" fill="#8899A6"/>
<path d="M30.83 33.279C31.996 34.445 33.852 34.5 34.951 33.4C36.051 32.3 35.996 30.445 34.83 29.279L11.565 6.014C10.398 4.847 8.54397 4.793 7.44397 5.893C6.34397 6.993 6.39897 8.848 7.56497 10.014L30.83 33.279Z" fill="#32CD32"/>
<path d="M21.444 0.893005C21.444 0.893005 15.444 -2.107 10.444 2.893L3.44402 9.893C3.44402 9.893 2.44402 8.893 1.44402 9.893L0.444017 10.893C0.444017 10.893 -0.555983 11.893 0.444017 12.893L4.44402 16.893C4.44402 16.893 5.44402 17.893 6.44402 16.893L7.44402 15.893C7.44402 15.893 8.44402 14.893 7.44402 13.893L7.36602 13.815C8.13602 13.072 9.28902 12.315 10.444 12.893L14.444 8.893C14.444 8.893 13.444 5.893 15.444 3.893C17.444 1.893 18.444 1.893 20.444 1.893C22.444 1.893 21.444 0.893005 21.444 0.893005Z" fill="#66757F"/>
</g>
<defs>
<clipPath id="clip0_114_2">
<rect width="36" height="36" fill="#C9EBDF"/>
</clipPath>
</defs>
</svg>
