<svg  width="120" height="120" viewBox="0 0 14 14" fill="" xmlns="http://www.w3.org/2000/svg">
<path fill-rule="evenodd" clip-rule="evenodd" d="M14 7C14 7.982 13.528 8.854 12.798 9.402C12.8642 9.86324 12.822 10.3335 12.6748 10.7756C12.5276 11.2177 12.2794 11.6195 11.95 11.949C11.6205 12.2788 11.2186 12.5272 10.7763 12.6746C10.334 12.8219 9.86347 12.8642 9.402 12.798C9.12257 13.1712 8.75999 13.4742 8.34304 13.6828C7.92609 13.8915 7.46624 14.0001 7 14C6.53376 14.0001 6.07391 13.8915 5.65696 13.6828C5.24001 13.4742 4.87743 13.1712 4.598 12.798C4.13676 12.8642 3.66646 12.822 3.22436 12.6748C2.78226 12.5276 2.38053 12.2794 2.051 11.95C1.72124 11.6205 1.47282 11.2186 1.32544 10.7763C1.17807 10.334 1.13581 9.86347 1.202 9.402C0.828773 9.12257 0.525814 8.75999 0.317165 8.34304C0.108517 7.92609 -7.78625e-05 7.46624 4.18861e-08 7C4.18861e-08 6.018 0.472 5.146 1.202 4.598C1.13584 4.13676 1.17803 3.66646 1.32522 3.22436C1.47241 2.78226 1.72056 2.38053 2.05 2.051C2.37954 1.72124 2.7814 1.47282 3.22369 1.32544C3.66598 1.17807 4.13653 1.13581 4.598 1.202C4.87743 0.828773 5.24001 0.525814 5.65696 0.317165C6.07391 0.108517 6.53376 -7.78625e-05 7 4.18861e-08C7.982 4.18861e-08 8.854 0.472 9.402 1.202C9.86324 1.13584 10.3335 1.17803 10.7756 1.32522C11.2177 1.47241 11.6195 1.72056 11.949 2.05C12.644 2.745 12.927 3.695 12.798 4.598C13.1712 4.87743 13.4742 5.24001 13.6828 5.65696C13.8915 6.07391 14.0001 6.53376 14 7ZM10.709 4.157C10.8664 4.27861 10.969 4.45776 10.9944 4.65504C11.0197 4.85233 10.9656 5.05159 10.844 5.209L6.594 10.709C6.52681 10.7959 6.44134 10.8671 6.34363 10.9173C6.24592 10.9676 6.13836 10.9958 6.02856 10.9999C5.91876 11.004 5.8094 10.9839 5.70821 10.9411C5.60703 10.8982 5.51649 10.8337 5.443 10.752L3.193 8.252C3.12464 8.17927 3.07148 8.09363 3.03664 8.00009C3.00181 7.90656 2.98599 7.807 2.99012 7.70728C2.99425 7.60755 3.01825 7.50965 3.06071 7.41931C3.10316 7.32898 3.16322 7.24803 3.23737 7.1812C3.31151 7.11438 3.39825 7.06303 3.4925 7.03016C3.58674 6.99729 3.6866 6.98356 3.78622 6.98978C3.88584 6.996 3.98322 7.02205 4.07264 7.06639C4.16207 7.11073 4.24174 7.17247 4.307 7.248L5.957 9.08L9.657 4.291C9.77875 4.13375 9.95797 4.0313 10.1553 4.00617C10.3525 3.98104 10.5517 4.0353 10.709 4.157Z" fill="#32CD32"/>
</svg>
