<svg width="30" height="29" viewBox="0 0 30 29" fill="none" xmlns="http://www.w3.org/2000/svg">
<path d="M28.9163 27.4781C28.9163 27.4869 22.595 27.4944 14.7987 27.4944C7.0025 27.4944 0.68 27.4869 0.68 27.4781C0.68 27.4694 7 27.4619 14.7987 27.4619C22.5975 27.4619 28.9163 27.4694 28.9163 27.4781Z" fill="#263238"/>
<path d="M12.6469 7.09875L12.0563 7.20125C11.7592 7.53725 11.3472 7.74996 10.9012 7.79757C10.4553 7.84518 10.0076 7.72424 9.64632 7.45852C9.28502 7.19281 9.03619 6.80154 8.94875 6.36166C8.86132 5.92177 8.9416 5.46509 9.17383 5.0814C9.40605 4.69771 9.7734 4.41478 10.2037 4.28822C10.6339 4.16166 11.096 4.20064 11.499 4.3975C11.9019 4.59435 12.2167 4.93483 12.3814 5.35201C12.546 5.76918 12.5486 6.23286 12.3888 6.65187L12.6469 7.09875Z" fill="white"/>
<path d="M12.6469 7.09875L12.6287 7.06938L12.5775 6.98375C12.5331 6.90813 12.4675 6.79625 12.3837 6.65688H12.3944C12.3938 6.65754 12.3931 6.65807 12.3923 6.65844C12.3914 6.6588 12.3906 6.65899 12.3897 6.65899C12.3888 6.65899 12.3879 6.6588 12.3871 6.65844C12.3863 6.65807 12.3856 6.65754 12.385 6.65688C12.3843 6.65576 12.3839 6.65446 12.3839 6.65313C12.3839 6.65179 12.3843 6.65049 12.385 6.64938C12.4883 6.37435 12.5226 6.07823 12.485 5.78688C12.473 5.6953 12.4537 5.60481 12.4275 5.51625C12.3983 5.42133 12.362 5.32877 12.3187 5.23938C12.1175 4.82209 11.7608 4.50032 11.325 4.34313C11.0798 4.25387 10.8181 4.21931 10.5581 4.24188C10.282 4.26946 10.0158 4.35989 9.78 4.50625C9.53269 4.65973 9.32771 4.87266 9.18375 5.12563C8.96703 5.50647 8.89846 5.95388 8.99117 6.38214C9.08387 6.81041 9.33135 7.18941 9.68617 7.44652C10.041 7.70364 10.4782 7.82079 10.914 7.77553C11.3499 7.73027 11.7537 7.52578 12.0481 7.20125H12.0525L12.49 7.12813L12.6044 7.10938L12.6437 7.10312C12.6437 7.10312 12.6325 7.10313 12.6075 7.11063L12.4956 7.1325L12.0544 7.21563H12.0581C11.8612 7.4407 11.6108 7.61264 11.33 7.71563C10.9822 7.84202 10.604 7.85844 10.2465 7.76264C9.88911 7.66684 9.56978 7.46346 9.33182 7.18007C9.09387 6.89668 8.94879 6.54698 8.91627 6.17837C8.88375 5.80975 8.96534 5.44006 9.15 5.11938L9.2075 5.02313C9.22875 4.99188 9.25187 4.96063 9.27375 4.9325C9.31792 4.87277 9.36593 4.81598 9.4175 4.7625C9.44187 4.735 9.47062 4.71188 9.4975 4.68625C9.52353 4.66065 9.55108 4.63665 9.58 4.61438C9.63637 4.56887 9.69566 4.52712 9.7575 4.48938C9.99767 4.34054 10.2688 4.24881 10.55 4.22125C10.8042 4.19867 11.0602 4.22974 11.3016 4.31242C11.543 4.39511 11.7643 4.52758 11.9512 4.70125C12.1118 4.85323 12.243 5.03354 12.3381 5.23313C12.3816 5.32394 12.4179 5.41797 12.4469 5.51438C12.473 5.60396 12.4918 5.69551 12.5031 5.78813C12.5398 6.08281 12.5026 6.38198 12.395 6.65875L12.3837 6.6525C12.3849 6.65136 12.3865 6.65071 12.3881 6.65071C12.3898 6.65071 12.3913 6.65136 12.3925 6.6525L12.58 6.9875L12.6275 7.07313C12.6425 7.08938 12.6469 7.09875 12.6469 7.09875Z" fill="#263238"/>
<path d="M10.6938 6.74875L9.81563 6.16125L10.0206 5.85437L10.6094 6.24875L11.3425 5.27875L11.6363 5.50125L10.6938 6.74875Z" fill="#32CD32"/>
<path d="M25.745 14.6594C25.7163 14.6688 25.6888 14.6788 25.6606 14.6894C25.6195 14.7056 25.5815 14.7286 25.5481 14.7575L25.3313 14.9394C25.2557 15.0021 25.2047 15.0896 25.1875 15.1863C25.0711 15.855 25.0177 16.5332 25.0281 17.2119C25.0281 17.295 25.0356 17.3875 25.1006 17.4456C25.1718 17.4946 25.2587 17.5153 25.3444 17.5038C25.5106 17.5056 25.6737 17.4589 25.8138 17.3694C25.985 17.2444 26.0513 17.0344 26.0975 16.8375C26.226 16.2559 26.2904 15.6619 26.2894 15.0663C26.2908 14.9998 26.2764 14.9339 26.2473 14.8742C26.2181 14.8144 26.1752 14.7625 26.1219 14.7227C26.0687 14.6829 26.0067 14.6564 25.9411 14.6454C25.8756 14.6344 25.8083 14.6392 25.745 14.6594Z" fill="#455A64"/>
<path d="M24.5819 25.71L24.5313 27.0431C24.5313 27.0431 25.8694 27.5431 25.8838 27.7894L23.2981 27.7844L23.2919 25.7038L24.5819 25.71Z" fill="#263238"/>
<path d="M23.7313 26.9294C23.7063 26.9369 23.6851 26.9534 23.6716 26.9757C23.6581 26.998 23.6533 27.0244 23.6581 27.05C23.6646 27.0752 23.6806 27.0969 23.7027 27.1107C23.7248 27.1244 23.7514 27.1291 23.7769 27.1238C23.8032 27.1155 23.8255 27.0979 23.8397 27.0743C23.8538 27.0507 23.8588 27.0227 23.8538 26.9956C23.8442 26.9701 23.8251 26.9494 23.8004 26.9377C23.7758 26.9261 23.7477 26.9244 23.7219 26.9331" fill="#E0E0E0"/>
<path d="M23.2981 27.7844L23.3063 27.5744L25.7844 27.6581C25.7844 27.6581 25.8994 27.7081 25.8863 27.7894L23.2981 27.7844Z" fill="#455A64"/>
<path d="M24.5731 27.03C24.5731 27.0425 24.5106 27.0481 24.4481 27.0888C24.3856 27.1294 24.3525 27.1825 24.3413 27.1775C24.33 27.1725 24.3481 27.0994 24.4244 27.0525C24.5006 27.0056 24.5763 27.0188 24.5731 27.03Z" fill="white"/>
<path d="M24.8444 27.1431C24.8475 27.155 24.7925 27.1763 24.7494 27.23C24.7063 27.2838 24.6938 27.34 24.6813 27.3394C24.6688 27.3388 24.6613 27.2669 24.7156 27.2019C24.77 27.1369 24.8444 27.1306 24.8444 27.1431Z" fill="white"/>
<path d="M24.9981 27.4681C24.9863 27.4681 24.9694 27.4056 25.0019 27.3388C25.0344 27.2719 25.0931 27.2419 25.0988 27.2525C25.1044 27.2631 25.0675 27.3 25.0413 27.3569C25.015 27.4137 25.0106 27.4669 24.9981 27.4681Z" fill="white"/>
<path d="M24.5513 26.725C24.5456 26.7363 24.4888 26.7188 24.4163 26.725C24.3438 26.7313 24.2913 26.7519 24.2825 26.7413C24.2738 26.7306 24.33 26.6856 24.4138 26.6788C24.4975 26.6719 24.5575 26.715 24.5513 26.725Z" fill="white"/>
<path d="M21.4144 25.5288L21.2738 27.1388L21.53 28.4419C21.5344 28.4642 21.5341 28.4871 21.5293 28.5093C21.5244 28.5315 21.515 28.5524 21.5017 28.5708C21.4884 28.5892 21.4715 28.6047 21.4519 28.6163C21.4324 28.6279 21.4107 28.6353 21.3881 28.6381C21.3621 28.6413 21.3356 28.6383 21.3109 28.6293C21.2863 28.6203 21.2641 28.6055 21.2463 28.5863C21.0156 28.3363 20.1713 27.4056 20.1881 27.2881C20.2081 27.1525 20.2238 25.5825 20.2238 25.5825L21.4144 25.5288Z" fill="#263238"/>
<path d="M21.3881 28.6388L20.1956 27.18L20.1913 27.2488C20.1874 27.3075 20.2045 27.3657 20.2394 27.4131C20.3344 27.5381 20.6031 27.8844 21.2394 28.5863C21.2576 28.6065 21.2806 28.6219 21.3062 28.631C21.3318 28.6402 21.3593 28.6428 21.3863 28.6388H21.3881Z" fill="#455A64"/>
<g opacity="0.6">
<path d="M20.5594 26.6794C20.578 26.6953 20.5902 26.7175 20.5937 26.7418C20.5971 26.7661 20.5916 26.7908 20.5781 26.8113C20.5631 26.8308 20.5412 26.8437 20.5168 26.8474C20.4925 26.8512 20.4677 26.8454 20.4475 26.8313C20.4274 26.8145 20.4143 26.7909 20.4107 26.765C20.4072 26.7391 20.4134 26.7128 20.4281 26.6913C20.446 26.6727 20.4703 26.6618 20.4961 26.6607C20.5218 26.6597 20.5469 26.6686 20.5663 26.6856" fill="white"/>
</g>
<path d="M21.0656 27.9088C21.1074 27.8609 21.1579 27.8215 21.2144 27.7925C21.2749 27.7732 21.3385 27.7651 21.4019 27.7688C21.4019 27.765 21.3838 27.7513 21.3463 27.7438C21.2972 27.7347 21.2465 27.7403 21.2006 27.76C21.1542 27.7788 21.1142 27.8107 21.0856 27.8519C21.0656 27.8838 21.0613 27.9075 21.0656 27.9088Z" fill="white"/>
<path d="M21.1663 28.1319C21.2138 28.1079 21.2629 28.087 21.3131 28.0694C21.3658 28.0628 21.4188 28.0593 21.4719 28.0588C21.448 28.042 21.4205 28.0311 21.3916 28.0269C21.3628 28.0227 21.3333 28.0252 21.3056 28.0344C21.2088 28.0587 21.1581 28.1269 21.1663 28.1319Z" fill="white"/>
<path d="M20.8694 27.6188C20.9402 27.5775 21.014 27.5414 21.09 27.5106C21.2188 27.4681 21.3319 27.4813 21.3325 27.47C21.2492 27.4482 21.1613 27.4506 21.0793 27.477C20.9973 27.5033 20.9244 27.5525 20.8694 27.6188Z" fill="white"/>
<path d="M20.8713 27.1263C20.875 27.1363 20.9663 27.105 21.0825 27.1081C21.1988 27.1113 21.2881 27.145 21.2925 27.1356C21.2323 27.0906 21.1581 27.0685 21.0831 27.0731C21.0085 27.0657 20.9335 27.0844 20.8713 27.1263Z" fill="white"/>
<path d="M20.9006 26.6537C20.972 26.635 21.0456 26.6266 21.1194 26.6287C21.1923 26.6415 21.2631 26.664 21.33 26.6956C21.33 26.6925 21.3163 26.6713 21.2806 26.6475C21.2331 26.6173 21.1792 26.5987 21.1232 26.5931C21.0672 26.5876 21.0106 26.5953 20.9581 26.6156C20.9188 26.6319 20.8981 26.65 20.9006 26.6537Z" fill="white"/>
<path d="M21.1225 26.5381C21.1291 26.518 21.1312 26.4967 21.1288 26.4756C21.1269 26.4195 21.1139 26.3643 21.0906 26.3131C21.0768 26.274 21.0504 26.2406 21.0156 26.2181C21.0035 26.2119 20.9898 26.2095 20.9762 26.2113C20.9627 26.2131 20.9501 26.2189 20.94 26.2281C20.9216 26.2474 20.9109 26.2728 20.91 26.2994C20.91 26.3533 20.9286 26.4056 20.9628 26.4473C20.997 26.489 21.0446 26.5176 21.0975 26.5281C21.1506 26.5369 21.205 26.5297 21.254 26.5074C21.303 26.4852 21.3442 26.4489 21.3725 26.4031C21.3795 26.3916 21.384 26.3788 21.3856 26.3654C21.3872 26.352 21.3859 26.3385 21.3819 26.3256C21.3767 26.3127 21.3674 26.3019 21.3554 26.2949C21.3434 26.2879 21.3294 26.285 21.3156 26.2869C21.2755 26.2929 21.2378 26.3095 21.2063 26.335C21.1602 26.367 21.1202 26.407 21.0881 26.4531C21.0749 26.4687 21.0653 26.4871 21.06 26.5069C21.1057 26.4489 21.1596 26.398 21.22 26.3556C21.2485 26.3346 21.2818 26.3211 21.3169 26.3163C21.3242 26.3154 21.3317 26.3169 21.3381 26.3206C21.3445 26.3244 21.3496 26.3301 21.3525 26.3369C21.3547 26.3455 21.3551 26.3544 21.3536 26.3631C21.3521 26.3719 21.3487 26.3802 21.3438 26.3875C21.318 26.4262 21.2817 26.4567 21.2392 26.4754C21.1967 26.4942 21.1497 26.5003 21.1038 26.4931C21.0587 26.4843 21.0179 26.4604 20.988 26.4255C20.9582 26.3906 20.9411 26.3465 20.9394 26.3006C20.9396 26.2823 20.9462 26.2646 20.9581 26.2506C20.9636 26.2453 20.9705 26.2419 20.9781 26.2408C20.9856 26.2396 20.9932 26.2409 21 26.2444C21.0282 26.2638 21.05 26.2912 21.0625 26.3231C21.0953 26.3906 21.1157 26.4634 21.1225 26.5381Z" fill="white"/>
<path d="M25.7456 14.3375C25.8073 14.9347 25.8177 15.536 25.7769 16.135C25.7494 16.4931 24.7144 26.4256 24.7144 26.4256H23.0856L23.5444 17.1131L23.4106 17.1425C23.4106 17.1425 22.52 21.1138 22.4475 21.7569C22.3819 22.335 21.6306 26.5338 21.6306 26.5338L20.1388 26.5513L20.6156 20.9969L21.1731 15.6675L21.3819 14.1163L25.7456 14.3375Z" fill="#263238"/>
<g opacity="0.3">
<path d="M21.7169 17.4563C21.7513 17.4719 21.985 17.4675 22.2031 17.2063C22.4213 16.945 22.7119 15.5038 22.7119 15.5038C22.7119 15.5038 23.9719 15.7806 24.8469 15.5594C25.7219 15.3381 25.8606 15.0063 25.8606 15.0063L22.6363 15.0613L22.2356 15.2356L21.7169 17.4563Z" fill="black"/>
</g>
<path d="M21.2713 14.9119L21.3731 14.1575C21.3731 14.1575 25.71 14.1981 25.7663 14.2581C25.8869 14.3831 25.8913 14.9119 25.7938 15.0244C25.7938 15.0244 25.1569 15.6263 23.9256 15.4838C23.3413 15.4163 21.2713 14.9119 21.2713 14.9119Z" fill="#455A64"/>
<path d="M21.385 14.5856C21.1825 14.5856 20.9475 14.5981 20.8269 14.7606C20.7525 14.8606 20.7413 14.9925 20.7331 15.1169C20.6988 15.6369 20.6644 16.1575 20.6806 16.6794C20.6869 16.8881 20.7081 17.1125 20.845 17.27C20.9656 17.4088 21.1575 17.4669 21.3369 17.4925C21.5519 17.5225 21.7919 17.5081 21.9525 17.3619C22.0969 17.23 22.14 17.0238 22.1788 16.8319C22.3121 16.139 22.4456 15.446 22.5794 14.7531L21.385 14.5856Z" fill="#455A64"/>
<path d="M22.3606 15.0763C22.3426 15.0887 22.3228 15.0983 22.3019 15.105C22.2785 15.1157 22.2545 15.1249 22.23 15.1325C22.1978 15.1436 22.1651 15.153 22.1319 15.1606C22.046 15.1821 21.9583 15.1955 21.87 15.2006C21.7616 15.2056 21.6529 15.1999 21.5456 15.1838C21.4388 15.1656 21.3341 15.1367 21.2331 15.0975C21.1508 15.065 21.0717 15.0249 20.9969 14.9775C20.9678 14.9601 20.9398 14.9409 20.9131 14.92C20.8914 14.9052 20.8705 14.8891 20.8506 14.8719C20.833 14.8586 20.8172 14.8431 20.8038 14.8256C20.8081 14.8206 20.8775 14.8825 21.0063 14.9581C21.0813 15.0018 21.1599 15.039 21.2413 15.0694C21.3408 15.106 21.4436 15.1334 21.5481 15.1513C21.6534 15.1668 21.7599 15.173 21.8663 15.17C21.953 15.1663 22.0394 15.1554 22.1244 15.1375C22.2706 15.1069 22.3563 15.07 22.3606 15.0763Z" fill="#263238"/>
<path d="M24.8469 15.4069C24.836 15.3199 24.836 15.232 24.8469 15.145C24.847 15.0575 24.8584 14.9703 24.8806 14.8856C24.8907 15.0602 24.8789 15.2353 24.8456 15.4069H24.8469Z" fill="#263238"/>
<path d="M27.8606 10.6806C27.8606 10.6806 27.5394 11.6763 27.1888 11.9044C26.8381 12.1325 26.3244 12.0363 26.0638 11.7744C25.8031 11.5125 25.4838 11.1944 25.4838 11.1944L25.04 8.45688C25.04 8.45688 25.49 8.7575 25.7438 9.03625C25.9975 9.315 26.8194 10.4275 26.8194 10.4275L27.1244 10.2844L27.8606 10.6806Z" fill="#E0E0E0"/>
<path d="M28.3369 10.125C28.3444 10.1394 28.3369 10.5 28.3369 10.5C28.3369 10.5 27.9581 10.7913 27.515 10.6163C27.0719 10.4413 27.0688 10.0875 27.0688 10.0875L27.1256 9.88688L27.2469 9.52813L28.3369 10.125Z" fill="#455A64"/>
<path d="M27.8644 10.2375H29.5569V9.9975H27.8644V10.2375Z" fill="#6F4439"/>
<path d="M27.8644 9.99688L20.1044 5.17375H21.735L29.5569 9.99688H27.8644Z" fill="#AE7461"/>
<path d="M27.8644 9.99688V10.2431L25.0531 8.52375L20.0613 5.38688V5.15188L27.8644 9.99688Z" fill="#6F4439"/>
<g opacity="0.3">
<path d="M27.8644 9.99688V10.2431L25.0531 8.52375L20.0613 5.38688V5.15188L27.8644 9.99688Z" fill="black"/>
</g>
<path d="M27.68 9.9175H29.3725V9.6775H27.68V9.9175Z" fill="#6F4439"/>
<path d="M27.68 9.6775L19.92 4.85438H21.5506L29.3725 9.6775H27.68Z" fill="#AE7461"/>
<path d="M27.68 9.6775V9.92313L24.8688 8.20375L19.8769 5.06688V4.83188L27.68 9.6775Z" fill="#6F4439"/>
<g opacity="0.3">
<path d="M27.68 9.6775V9.92313L24.8688 8.20375L19.8769 5.06688V4.83188L27.68 9.6775Z" fill="black"/>
</g>
<path d="M26.6563 8.405C26.4738 8.2175 26.7188 8.155 26.7888 8.1175C26.8588 8.08 27.3444 7.96 27.41 8.20563C27.41 8.20563 27.6144 8.20563 27.6431 8.3175C27.6431 8.3175 28.4169 8.60063 28.3506 9.04688L27.6731 8.66188C27.6731 8.66188 26.8638 8.61938 26.6563 8.405Z" fill="#455A64"/>
<path d="M21.8606 7.88125C21.8606 7.88125 20.575 8.53875 20.5256 9.24313C20.5138 9.415 21.0219 11.6906 21.2713 13.01C21.385 13.6106 21.3563 13.9013 21.3563 13.9013L21.3731 14.1575C21.6006 14.26 23.4513 14.8506 24.6581 14.7306C26.0131 14.5956 25.7994 14.1181 25.7313 13.8556C25.6631 13.5931 25.6063 12.4094 25.6063 12.37C25.6063 12.3306 25.0619 8.4325 25.0619 8.4325L23.8775 7.8625L23.7156 7.62438L23.4888 8.09375L21.9981 7.45625L21.8606 7.88125Z" fill="#E0E0E0"/>
<path d="M21.8606 7.88125C22.7042 8.47479 23.4797 9.15956 24.1731 9.92313L24.1394 7.99L25.09 8.4475C25.09 8.4475 25.5738 11.7456 25.6075 12.37C25.6413 12.9944 25.8438 14.1825 25.795 14.3C25.7463 14.4175 25.25 14.8594 24.685 14.8856C22.7781 14.9756 21.335 14.4325 21.335 14.4325L21.2725 13.01L20.9738 11.5231L20.7356 10.67C20.7356 10.67 21.5813 12.165 22.4044 11.41C23.0294 10.8375 22.7519 9.47938 21.995 8.82813C21.6419 8.52375 20.9706 8.47375 20.9706 8.47375C20.9706 8.47375 21.6038 7.92875 21.8606 7.88125Z" fill="#32CD32"/>
<path d="M21.2713 13.01C21.2713 13.01 21.7838 13.3019 23.1006 13.4438C24.4175 13.5856 25.6631 12.9775 25.6631 12.9775L25.7181 13.4244C24.8488 13.7837 23.9042 13.9228 22.9681 13.8294C22.4044 13.7759 21.8459 13.6768 21.2981 13.5331L21.2713 13.01Z" fill="white"/>
<path d="M21.3031 13.7013C21.3031 13.7013 21.7894 13.9831 23.1263 14.125C24.4631 14.2669 25.7763 13.7394 25.7763 13.7394L25.8063 14.0588C25.8063 14.0588 24.6675 14.6563 23.0919 14.4963C22.4893 14.4378 21.8955 14.3105 21.3219 14.1169L21.3031 13.7013Z" fill="white"/>
<path d="M24.8469 14.8038C24.8433 14.7871 24.841 14.7702 24.84 14.7531C24.8369 14.7175 24.8325 14.6694 24.8275 14.6094C24.8169 14.4813 24.8025 14.3013 24.785 14.08C24.75 13.6331 24.7056 13.0175 24.6281 12.3356C24.567 11.755 24.4721 11.1783 24.3438 10.6088C24.3313 10.5544 24.3188 10.5025 24.3069 10.4531C24.295 10.4038 24.2819 10.3588 24.2706 10.3156C24.2475 10.2294 24.2281 10.1556 24.2081 10.0956L24.1675 9.9575C24.1617 9.94151 24.1575 9.92497 24.155 9.90813C24.1625 9.92322 24.1688 9.9389 24.1738 9.955L24.2206 10.0919C24.2413 10.1513 24.2625 10.225 24.2875 10.3106C24.2994 10.3538 24.3125 10.3994 24.3263 10.4481L24.3656 10.6031C24.501 11.1724 24.5993 11.7499 24.66 12.3319C24.7356 13.0138 24.7788 13.6306 24.8081 14.0763C24.8213 14.2981 24.8325 14.4781 24.84 14.6069C24.84 14.6694 24.845 14.715 24.8469 14.7513C24.8486 14.7687 24.8486 14.7863 24.8469 14.8038Z" fill="#263238"/>
<path d="M25.2419 8.81938C25.2517 8.85202 25.2586 8.88549 25.2625 8.91938C25.2738 8.98188 25.2881 9.07813 25.3044 9.19438C25.3375 9.42688 25.3756 9.74938 25.405 10.1069C25.4344 10.4644 25.4494 10.7888 25.455 11.0238C25.4581 11.1413 25.4594 11.2363 25.4588 11.3019C25.4603 11.3361 25.459 11.3704 25.455 11.4044C25.4489 11.3708 25.4459 11.3367 25.4463 11.3025C25.4425 11.2313 25.4381 11.1375 25.4325 11.0244C25.4206 10.79 25.4019 10.4663 25.37 10.1094C25.3381 9.7525 25.3075 9.43063 25.2794 9.1975C25.2663 9.085 25.2556 8.99188 25.2475 8.92125C25.2434 8.88746 25.2415 8.85342 25.2419 8.81938Z" fill="#263238"/>
<path d="M23.88 7.86438C23.8817 7.87849 23.8817 7.89276 23.88 7.90688C23.88 7.93813 23.8769 7.97875 23.8744 8.0275C23.8669 8.13313 23.8594 8.28125 23.8394 8.46938V8.49438L23.8206 8.475L23.4856 8.13313L23.5113 8.12813L23.32 8.62313L23.3138 8.63938L23.2981 8.63188C22.8956 8.44438 22.5363 8.26188 22.2788 8.12688C22.15 8.05875 22.0463 8.00188 21.975 7.96313L21.8938 7.91688C21.8841 7.91165 21.8749 7.90559 21.8663 7.89875C21.877 7.90115 21.8873 7.90515 21.8969 7.91063L21.9856 7.95125L22.2938 8.10563C22.5538 8.23563 22.9144 8.41313 23.3163 8.60188L23.2944 8.61063C23.3619 8.43688 23.4275 8.26938 23.4869 8.11625L23.4956 8.09375L23.5125 8.11125C23.6319 8.23625 23.7425 8.35438 23.8388 8.45625L23.8169 8.46188C23.8388 8.2825 23.8506 8.12938 23.8619 8.02438C23.8669 7.97563 23.8713 7.93563 23.875 7.90438C23.8751 7.89089 23.8767 7.87746 23.88 7.86438Z" fill="#263238"/>
<g opacity="0.3">
<path d="M21.1769 11.5981L21.1363 11.32L24.2613 12.0325C24.2613 12.0325 23.8119 12.845 22.875 12.9931C21.9381 13.1413 21.5813 12.2519 21.1769 11.5981Z" fill="black"/>
</g>
<path d="M27.5913 8.8425C27.6304 8.84536 27.6671 8.86245 27.6945 8.89054C27.722 8.91864 27.7381 8.9558 27.74 8.995C27.7382 9.02661 27.7268 9.05692 27.7074 9.08192C27.688 9.10692 27.6614 9.12543 27.6313 9.135C27.425 9.22875 26.9588 9.135 26.9588 9.135C26.9588 9.135 26.5675 9.79375 26.405 9.95063L25.8106 10.8394L24.7225 10.0656L25.2944 9.48125C25.2944 9.48125 25.6069 8.7375 25.8106 8.59125C26.0144 8.445 26.8175 8.3825 26.8281 8.53875C26.8281 8.53875 27.4731 8.46625 27.4844 8.82125L27.5913 8.8425Z" fill="#455A64"/>
<path d="M25.6819 10.5763C25.6581 10.6425 24.4525 11.7238 24.4525 11.7238L24.0588 10.5763L24.8319 10.0844C25.2025 10.1288 25.4663 10.3144 25.6819 10.5763Z" fill="#AE7461"/>
<path d="M26.79 8.8025C26.9068 8.78209 27.0258 8.77747 27.1438 8.78875C27.2619 8.78915 27.3797 8.80066 27.4956 8.82313C27.3782 8.8338 27.26 8.8338 27.1425 8.82313C26.9481 8.81188 26.7906 8.81125 26.79 8.8025Z" fill="#263238"/>
<path d="M27.4856 8.82125C27.4761 8.79503 27.4698 8.76775 27.4669 8.74C27.4518 8.70639 27.4291 8.67675 27.4005 8.65342C27.372 8.6301 27.3385 8.61374 27.3025 8.60563C27.1979 8.57382 27.0893 8.5572 26.98 8.55625C26.8025 8.55625 26.6419 8.56438 26.525 8.57188C26.4628 8.57895 26.4001 8.58125 26.3375 8.57875C26.3988 8.56253 26.4617 8.55248 26.525 8.54875C26.6768 8.53082 26.8296 8.52247 26.9825 8.52375C27.0952 8.52453 27.207 8.54331 27.3138 8.57938C27.3528 8.58934 27.3888 8.60883 27.4184 8.63609C27.4481 8.66336 27.4705 8.69756 27.4838 8.73563C27.4886 8.76392 27.4892 8.79277 27.4856 8.82125Z" fill="#263238"/>
<path d="M25.2769 9.49313C25.2924 9.48557 25.3091 9.48071 25.3263 9.47875C25.372 9.46974 25.4184 9.46472 25.465 9.46375C25.6204 9.46037 25.7743 9.49446 25.9138 9.56313C26.0534 9.6319 26.1734 9.73488 26.2625 9.8625C26.2895 9.90057 26.3127 9.94118 26.3319 9.98375C26.3407 9.99872 26.3464 10.0153 26.3488 10.0325C26.3438 10.0325 26.3144 9.97 26.2438 9.87563C26.1518 9.75631 26.0341 9.65931 25.8994 9.59188C25.7639 9.52587 25.6157 9.49005 25.465 9.48688C25.3494 9.48438 25.2775 9.49875 25.2769 9.49313Z" fill="#263238"/>
<path d="M24.7225 10.0656C24.7411 10.0624 24.7601 10.0624 24.7788 10.0656C24.83 10.0676 24.8812 10.0726 24.9319 10.0806C25.1018 10.1049 25.2635 10.1692 25.4038 10.2681C25.5421 10.3689 25.6568 10.4986 25.74 10.6481C25.7645 10.6931 25.7854 10.7399 25.8025 10.7881C25.8106 10.8054 25.8155 10.8241 25.8169 10.8431C25.8119 10.8431 25.785 10.7694 25.7181 10.66C25.6313 10.5173 25.5172 10.3931 25.3825 10.2944C25.2455 10.2 25.09 10.1361 24.9263 10.1069C24.8019 10.0763 24.7219 10.0706 24.7225 10.0656Z" fill="#263238"/>
<path d="M20.8644 8.70625C20.9125 8.67875 21.7219 8.57 22.1344 9.35438C22.5469 10.1388 22.9269 10.975 22.9269 10.975L24.0231 10.475L24.5013 11.8656C24.5013 11.8656 23.1006 12.9113 22.4056 12.7544C21.7106 12.5975 20.8019 10.7975 20.7556 10.7325C20.7094 10.6675 20.1044 9.13875 20.8644 8.70625Z" fill="#E0E0E0"/>
<path d="M20.8644 8.70625L20.8369 8.72625L20.8019 8.74938C20.7888 8.75938 20.775 8.7725 20.7581 8.78688C20.6632 8.87268 20.5928 8.98229 20.5544 9.10438C20.4438 9.42 20.4819 9.92188 20.6706 10.4844C20.6944 10.5544 20.7206 10.6263 20.7519 10.6969L20.8675 10.905C20.9463 11.0475 21.031 11.1933 21.1219 11.3425C21.3122 11.6627 21.5282 11.967 21.7675 12.2525C21.8951 12.4074 22.0451 12.5424 22.2125 12.6531C22.2989 12.708 22.3974 12.7408 22.4994 12.7488C22.6043 12.7546 22.7096 12.7453 22.8119 12.7213C23.023 12.6706 23.2277 12.596 23.4219 12.4988C23.6235 12.4009 23.8199 12.2924 24.01 12.1738C24.1763 12.07 24.3381 11.9625 24.4925 11.85L24.4869 11.8681C24.3206 11.385 24.1606 10.9188 24.0094 10.4769L24.03 10.4863L22.9331 10.9863L22.9206 10.9919L22.9144 10.9794C22.7069 10.525 22.5081 10.1125 22.3263 9.74938L22.1925 9.48688C22.1713 9.44438 22.1494 9.40313 22.13 9.36188L22.0619 9.24688C21.9761 9.11156 21.8646 8.99436 21.7338 8.90188C21.6285 8.82697 21.5108 8.77112 21.3863 8.73688C21.2941 8.71057 21.1994 8.69443 21.1038 8.68875C21.0446 8.68511 20.9852 8.68636 20.9263 8.6925C20.9111 8.69417 20.8961 8.69667 20.8813 8.7L20.8663 8.70375C20.8707 8.70099 20.8756 8.69889 20.8806 8.6975C20.8906 8.6975 20.9056 8.69125 20.9256 8.68813C20.9849 8.68036 21.0447 8.67764 21.1044 8.68C21.2007 8.68428 21.2963 8.69916 21.3894 8.72438C21.5155 8.75829 21.6348 8.81391 21.7419 8.88875C21.875 8.9821 21.9887 9.10031 22.0769 9.23688L22.1463 9.35313L22.2088 9.47813L22.3438 9.74C22.5275 10.1025 22.7281 10.5144 22.9369 10.9688L22.9181 10.9619C23.2613 10.8044 23.6275 10.6356 24.0144 10.4588L24.0294 10.4513L24.035 10.4675L24.5144 11.8581L24.5181 11.8694L24.5088 11.8763C24.3529 11.99 24.1913 12.0985 24.0238 12.2019C23.8326 12.3213 23.6353 12.4304 23.4325 12.5288C23.2362 12.627 23.0292 12.7023 22.8156 12.7531C22.7104 12.7775 22.6022 12.7868 22.4944 12.7806C22.3876 12.7724 22.2845 12.7379 22.1944 12.68C22.1069 12.6257 22.0251 12.5629 21.95 12.4925C21.8769 12.4239 21.8076 12.3513 21.7425 12.275C21.5027 11.9876 21.2865 11.6811 21.0963 11.3588C21.0056 11.2088 20.9219 11.0613 20.8431 10.9213L20.7275 10.7106C20.6956 10.6381 20.67 10.5663 20.6463 10.4956C20.56 10.2383 20.5048 9.97165 20.4819 9.70125C20.4611 9.49784 20.4824 9.29233 20.5444 9.0975C20.5848 8.97434 20.6578 8.86441 20.7556 8.77938C20.7725 8.76563 20.7875 8.7525 20.8013 8.74313L20.8369 8.72063C20.8544 8.71125 20.8644 8.70625 20.8644 8.70625Z" fill="#263238"/>
<path d="M22.7981 11.5969C22.8028 11.3823 22.8471 11.1704 22.9288 10.9719C22.9144 11.0772 22.8935 11.1816 22.8663 11.2844C22.8495 11.3898 22.8268 11.4941 22.7981 11.5969Z" fill="#263238"/>
<path d="M22.3425 11.5981C22.342 11.5523 22.3507 11.5068 22.3681 11.4644C22.4046 11.3598 22.4637 11.2646 22.5413 11.1856C22.6177 11.1058 22.7101 11.043 22.8125 11.0013C22.8537 10.9812 22.8986 10.9697 22.9444 10.9675C22.9444 10.9725 22.8956 10.9863 22.8194 11.0219C22.7233 11.069 22.6362 11.1324 22.5619 11.2094C22.488 11.286 22.4289 11.3757 22.3875 11.4738C22.3606 11.5481 22.3481 11.5988 22.3425 11.5981Z" fill="#263238"/>
<path d="M26.845 8.53625C26.845 8.53625 26.8394 8.52625 26.8275 8.5125C26.8099 8.49414 26.7869 8.48188 26.7619 8.4775C26.7227 8.47246 26.6832 8.47058 26.6438 8.47188C26.5988 8.47188 26.5488 8.47188 26.4963 8.47625C26.2869 8.48875 26.1163 8.5075 26.115 8.49688C26.1503 8.4835 26.1874 8.47529 26.225 8.4725C26.2938 8.46188 26.3888 8.44938 26.4944 8.44375C26.5475 8.44375 26.5981 8.44375 26.6444 8.44375C26.6864 8.44374 26.7283 8.44814 26.7694 8.45688C26.7986 8.46405 26.8238 8.48218 26.84 8.5075C26.8481 8.52375 26.8469 8.53625 26.845 8.53625Z" fill="#263238"/>
<path d="M24.6219 4.89563C24.5839 4.81267 24.5173 4.74613 24.4344 4.70813C23.6406 4.36125 22.7231 4.38438 21.8931 4.62938C21.6775 4.69188 21.4463 4.7875 21.3431 4.98938V5.00313C21.2988 5.135 21.3644 5.305 21.465 5.4C21.5712 5.48988 21.6975 5.55291 21.8331 5.58375C22.465 5.765 23.1388 5.72313 23.7888 5.625C23.9422 5.60672 24.0931 5.5715 24.2388 5.52C24.3854 5.46797 24.5141 5.3749 24.6094 5.25188C24.6454 5.19995 24.6658 5.13876 24.668 5.07559C24.6702 5.01242 24.6542 4.94995 24.6219 4.89563Z" fill="#32CD32"/>
<g opacity="0.3">
<path d="M24.6219 4.89563C24.5839 4.81267 24.5173 4.74613 24.4344 4.70813C23.6406 4.36125 22.7231 4.38438 21.8931 4.62938C21.6775 4.69188 21.4463 4.7875 21.3431 4.98938V5.00313C21.2988 5.135 21.3644 5.305 21.465 5.4C21.5712 5.48988 21.6975 5.55291 21.8331 5.58375C22.465 5.765 23.1388 5.72313 23.7888 5.625C23.9422 5.60672 24.0931 5.5715 24.2388 5.52C24.3854 5.46797 24.5141 5.3749 24.6094 5.25188C24.6454 5.19995 24.6658 5.13876 24.668 5.07559C24.6702 5.01242 24.6542 4.94995 24.6219 4.89563Z" fill="black"/>
</g>
<path d="M21.9913 6.30875C21.8802 6.03829 21.7928 5.7587 21.73 5.47313C21.6679 5.18625 21.6776 4.88849 21.7581 4.60625C21.7719 4.56375 21.89 4.27938 21.9344 4.28188C21.9656 4.28188 21.8975 4.54688 21.9144 4.57313C22.071 4.83422 22.1445 5.13679 22.125 5.44063C22.1127 5.73406 22.0678 6.02521 21.9913 6.30875Z" fill="#263238"/>
<path d="M24.325 4.9975C24.2999 4.66938 24.1525 4.36264 23.912 4.13808C23.6714 3.91351 23.3553 3.78749 23.0263 3.785H22.9588C22.2269 3.82313 21.8506 4.46625 21.9094 5.19688L22.0219 7.46375L23.4913 8.09563L23.6988 7.66688C23.6988 7.66688 23.6925 7.47938 23.6938 7.47938C23.695 7.47938 24.3975 7.37438 24.4106 6.67125C24.4169 6.33125 24.3725 5.63063 24.325 4.9975Z" fill="#AE7461"/>
<path d="M23.6938 7.47875C23.3689 7.47567 23.0517 7.37935 22.78 7.20125C22.78 7.20125 22.9969 7.72438 23.6988 7.665L23.6938 7.47875Z" fill="#6F4439"/>
<path d="M24.0156 5.60938C24.0158 5.63558 24.0057 5.6608 23.9874 5.67962C23.9692 5.69844 23.9443 5.70935 23.9181 5.71C23.9053 5.71102 23.8925 5.70944 23.8803 5.70536C23.8682 5.70128 23.857 5.69478 23.8474 5.68626C23.8378 5.67773 23.8301 5.66736 23.8246 5.65575C23.8191 5.64415 23.8161 5.63157 23.8156 5.61875C23.8155 5.59265 23.8255 5.56752 23.8436 5.54872C23.8617 5.52992 23.8864 5.51894 23.9125 5.51813C23.9253 5.51711 23.9382 5.51868 23.9504 5.52275C23.9626 5.52683 23.9738 5.53332 23.9835 5.54184C23.9931 5.55035 24.0009 5.56072 24.0064 5.57233C24.0119 5.58393 24.0151 5.59653 24.0156 5.60938Z" fill="#263238"/>
<path d="M24.1731 5.28813C24.1606 5.30125 24.085 5.24438 23.9769 5.24438C23.8688 5.24438 23.7894 5.2975 23.7775 5.28438C23.7656 5.27125 23.785 5.25438 23.8194 5.23C23.8661 5.19765 23.9219 5.18082 23.9788 5.18188C24.035 5.18183 24.0897 5.19979 24.135 5.23313C24.1681 5.25875 24.1794 5.2825 24.1731 5.28813Z" fill="#263238"/>
<path d="M23.0481 5.60563C23.0483 5.63172 23.0383 5.65685 23.0202 5.67566C23.0021 5.69446 22.9773 5.70544 22.9513 5.70625C22.9384 5.70727 22.9256 5.7057 22.9134 5.70162C22.9012 5.69755 22.8899 5.69106 22.8803 5.68254C22.8707 5.67402 22.8629 5.66365 22.8573 5.65205C22.8518 5.64044 22.8487 5.62784 22.8481 5.615C22.848 5.5888 22.8581 5.56358 22.8763 5.54476C22.8945 5.52594 22.9194 5.51503 22.9456 5.51438C22.9584 5.51344 22.9712 5.51508 22.9833 5.5192C22.9954 5.52331 23.0066 5.52981 23.0162 5.53832C23.0257 5.54683 23.0335 5.55717 23.039 5.56874C23.0445 5.5803 23.0476 5.59284 23.0481 5.60563Z" fill="#263238"/>
<path d="M23.1144 5.32625C23.1019 5.33938 23.0263 5.2825 22.9181 5.2825C22.81 5.2825 22.7306 5.33563 22.7188 5.3225C22.7069 5.30938 22.7263 5.2925 22.7606 5.26813C22.8076 5.23573 22.8635 5.2187 22.9206 5.21938C22.9767 5.21982 23.0312 5.23797 23.0763 5.27125C23.1106 5.29625 23.1206 5.32 23.1144 5.32625Z" fill="#263238"/>
<path d="M23.4975 6.15813C23.5546 6.14076 23.6136 6.13048 23.6731 6.1275C23.7006 6.1275 23.7269 6.11938 23.7313 6.10063C23.734 6.07218 23.7279 6.04359 23.7138 6.01875L23.6331 5.80813C23.5219 5.50875 23.4413 5.26188 23.4531 5.2575C23.465 5.25313 23.5656 5.4925 23.6769 5.7925L23.7538 6.00438C23.7712 6.0376 23.776 6.07598 23.7675 6.1125C23.7635 6.12228 23.7573 6.13102 23.7494 6.13805C23.7415 6.14509 23.7321 6.15024 23.7219 6.15313C23.7065 6.15681 23.6908 6.1589 23.675 6.15938C23.616 6.1666 23.5564 6.16618 23.4975 6.15813Z" fill="#263238"/>
<path d="M23.1788 6.23125C23.1963 6.23125 23.1956 6.3475 23.2956 6.43125C23.3956 6.515 23.5206 6.50313 23.5213 6.51938C23.5219 6.53563 23.4938 6.54188 23.4406 6.54313C23.3722 6.54339 23.3059 6.51973 23.2531 6.47625C23.202 6.43456 23.1694 6.37435 23.1625 6.30875C23.1575 6.25938 23.1731 6.23063 23.1788 6.23125Z" fill="#263238"/>
<path d="M23.1106 4.88875C23.1 4.9175 22.9919 4.90313 22.865 4.9175C22.7381 4.93188 22.6356 4.96625 22.6188 4.94C22.6113 4.92688 22.6294 4.89938 22.6706 4.87125C22.7259 4.83626 22.7886 4.81484 22.8538 4.80875C22.9187 4.80101 22.9845 4.80916 23.0456 4.8325C23.0925 4.85 23.1156 4.87313 23.1106 4.88875Z" fill="#263238"/>
<path d="M24.1306 4.92875C24.1113 4.95313 24.0375 4.92875 23.9475 4.92875C23.8575 4.92875 23.7825 4.94438 23.765 4.91875C23.7575 4.90625 23.7694 4.88125 23.8031 4.85625C23.8477 4.8287 23.8995 4.815 23.9519 4.81689C24.0043 4.81878 24.055 4.83618 24.0975 4.86688C24.1288 4.89188 24.1394 4.91688 24.1306 4.92875Z" fill="#263238"/>
<path d="M21.9638 5.7175C21.9519 5.7125 21.4813 5.57188 21.4938 6.0525C21.5063 6.53313 22.0225 6.4275 22.0231 6.41563C22.0238 6.40375 21.9638 5.7175 21.9638 5.7175Z" fill="#AE7461"/>
<path d="M21.835 6.22938C21.835 6.22938 21.8269 6.23563 21.8131 6.2425C21.7931 6.2507 21.7707 6.2507 21.7506 6.2425C21.6994 6.225 21.6544 6.14563 21.65 6.05875C21.6477 6.01756 21.6545 5.97636 21.67 5.93813C21.6747 5.92347 21.6828 5.91015 21.6937 5.89928C21.7045 5.8884 21.7179 5.88029 21.7325 5.87563C21.742 5.87265 21.7523 5.87315 21.7614 5.87704C21.7706 5.88094 21.7781 5.88797 21.7825 5.89688C21.7894 5.91063 21.7869 5.92 21.7894 5.92063C21.7919 5.92125 21.7994 5.9125 21.795 5.8925C21.7919 5.8807 21.7848 5.87033 21.775 5.86313C21.7617 5.85342 21.7451 5.84938 21.7288 5.85188C21.7092 5.85644 21.691 5.86588 21.6761 5.87932C21.6611 5.89276 21.6498 5.90976 21.6431 5.92875C21.6238 5.97101 21.615 6.01734 21.6175 6.06375C21.6231 6.16063 21.675 6.25125 21.7425 6.26813C21.7555 6.27162 21.7692 6.27209 21.7824 6.26948C21.7956 6.26688 21.808 6.26129 21.8188 6.25313C21.835 6.24125 21.8369 6.23063 21.835 6.22938Z" fill="#6F4439"/>
<path d="M23.9856 4.21188C24.0619 4.16625 23.82 3.9225 23.6256 3.8425C23.3325 3.72125 22.8881 3.655 22.6256 3.74063C22.3081 3.84313 22.0475 4.01188 21.8963 4.30938C21.7517 4.612 21.6902 4.94765 21.7181 5.28188C21.7178 5.38541 21.7454 5.48712 21.7981 5.57625C21.8694 5.68063 22 5.74313 22 5.88875C21.999 5.91537 22.0033 5.94193 22.0128 5.96684C22.0222 5.99175 22.0366 6.0145 22.055 6.03375C22.1463 6.12438 22.2506 6.03375 22.2969 5.94313C22.3963 5.75125 22.4 5.52563 22.4019 5.31C22.4114 5.15641 22.3958 5.0023 22.3556 4.85375C22.3294 4.77438 22.2888 4.7 22.2669 4.61938C22.2535 4.5797 22.2488 4.53759 22.2532 4.49594C22.2577 4.4543 22.2711 4.4141 22.2925 4.37813C22.304 4.36371 22.3166 4.35014 22.33 4.3375C22.395 4.27649 22.475 4.23394 22.562 4.21427C22.6489 4.1946 22.7395 4.19852 22.8244 4.22563C23.0981 4.31188 23.5656 4.43875 23.6831 4.3425C23.8519 4.20438 23.8906 4.11688 23.8906 4.11688L23.9856 4.21188Z" fill="#263238"/>
<path d="M24.3644 4.9375C24.1268 4.79607 23.857 4.71795 23.5806 4.71063C22.3638 4.70688 21.6731 5.13875 21.6731 5.13875L21.6481 4.8025C21.6481 4.8025 23.4344 4.48563 23.4463 4.485C23.4581 4.48438 23.9925 4.58375 24.005 4.58813C24.0175 4.5925 24.3338 4.65063 24.3338 4.65063L24.3644 4.9375Z" fill="#455A64"/>
<path d="M24.6663 5.00563C24.6663 5.00563 24.3688 4.47938 22.9856 4.63875C21.5363 4.80438 21.3519 5.1825 21.3519 5.1825C21.3519 5.1825 21.2475 4.85563 21.4863 4.69188C21.4975 4.29312 21.6411 3.90943 21.8944 3.60125C22.0438 3.42875 22.3125 3.28188 22.3688 3.23563L22.3775 3.13875C22.3775 3.13875 22.4794 3.02313 22.9694 3.01375C23.475 3.00625 23.5756 3.16438 23.5756 3.16438L23.5869 3.25063C23.5869 3.25063 24.3656 3.61563 24.4231 4.62063C24.4231 4.62063 24.6988 4.805 24.6663 5.00563Z" fill="#32CD32"/>
<g opacity="0.3">
<path d="M22.3788 3.13875C22.4594 3.235 22.5988 3.40125 22.6238 3.54125C22.6448 3.68277 22.6553 3.82567 22.655 3.96875C22.5719 3.49875 22.5038 3.43063 22.37 3.23563L22.3788 3.13875Z" fill="black"/>
</g>
<path d="M21.4856 4.69063C21.4941 4.68498 21.5034 4.68056 21.5131 4.6775L21.5944 4.64438C21.63 4.62938 21.6738 4.61313 21.7256 4.59688C21.7775 4.58063 21.8356 4.55938 21.9019 4.54313C22.2462 4.44973 22.5994 4.39296 22.9556 4.37375C23.3116 4.34753 23.6694 4.37279 24.0181 4.44875C24.0838 4.4675 24.1431 4.485 24.195 4.50375C24.2469 4.5225 24.2888 4.54188 24.32 4.56L24.3956 4.60563C24.4048 4.61022 24.4132 4.61611 24.4206 4.62313C24.4206 4.62313 24.4106 4.62313 24.3925 4.61125L24.315 4.57125C24.2806 4.555 24.2363 4.54063 24.1863 4.52063C24.1363 4.50063 24.0756 4.48875 24.01 4.47125C23.6623 4.40311 23.307 4.38209 22.9538 4.40875C22.5997 4.42845 22.2483 4.48182 21.9044 4.56813C21.8375 4.5825 21.7794 4.6025 21.7275 4.61688C21.6756 4.63125 21.6306 4.64563 21.595 4.65875L21.5119 4.68563C21.5034 4.68854 21.4946 4.69022 21.4856 4.69063Z" fill="#263238"/>
<path d="M22.3788 3.13875C22.4135 3.16558 22.4448 3.19666 22.4719 3.23125C22.5473 3.30768 22.604 3.40051 22.6375 3.5025C22.6667 3.60396 22.6787 3.70958 22.6731 3.815C22.6738 3.8591 22.6673 3.90302 22.6538 3.945C22.6487 3.90165 22.6475 3.85794 22.65 3.81438C22.649 3.71101 22.6343 3.60824 22.6063 3.50875C22.5735 3.41096 22.5219 3.32051 22.4544 3.2425C22.425 3.21116 22.3996 3.17632 22.3788 3.13875Z" fill="#263238"/>
<g opacity="0.3">
<path d="M22.3688 3.46625C22.3721 3.44467 22.3679 3.42258 22.3569 3.40375C22.3502 3.39619 22.3417 3.39057 22.3321 3.38749C22.3225 3.38441 22.3123 3.38398 22.3025 3.38625C22.2834 3.39203 22.2654 3.40112 22.2494 3.41313C22.0716 3.54169 21.9232 3.70659 21.8141 3.89689C21.7049 4.08718 21.6375 4.29852 21.6163 4.51688C21.6155 4.52159 21.616 4.52643 21.6179 4.53083C21.6198 4.53523 21.6228 4.539 21.6268 4.5417C21.6307 4.5444 21.6354 4.5459 21.6402 4.54605C21.6449 4.54619 21.6497 4.54496 21.6538 4.5425C21.8144 4.45311 21.9882 4.38982 22.1688 4.355C22.2275 4.3425 22.3131 4.3475 22.3381 4.28563C22.3512 4.24789 22.3572 4.20804 22.3556 4.16813L22.3688 3.46625Z" fill="white"/>
</g>
<path d="M23.5988 3.7425C23.5872 3.6486 23.5836 3.55388 23.5881 3.45938C23.5814 3.36505 23.5828 3.27032 23.5925 3.17625C23.6153 3.2688 23.6248 3.36414 23.6206 3.45938C23.627 3.55431 23.6196 3.64967 23.5988 3.7425Z" fill="#263238"/>
<path d="M11.8638 16.3356C11.8638 16.2656 11.8638 14.5644 12.0213 13.705C12.1788 12.8456 12.6175 10.2325 12.7931 9.84625C12.9688 9.46 13.0156 9.395 13.095 9.31688C13.1744 9.23875 13.72 10.7756 13.67 10.8288C13.62 10.8819 13.2025 13.5563 13.2025 13.5563L12.6 16.3356H11.8638Z" fill="#E0E0E0"/>
<path d="M10.9325 17.7344C10.8925 17.7875 10.6269 21.0706 10.6269 21.0706L12.0975 22.3594L13.0594 22.3731L13.285 18.7975L11.8475 17.6931L10.9325 17.7344Z" fill="#455A64"/>
<path d="M11.72 18.0287C11.72 18.0287 11.7156 17.56 11.975 17.4456L12.0494 17.5794C12.0494 17.5794 11.9475 17.7325 11.9563 18.0287C11.9563 18.0287 11.8094 18.1081 11.72 18.0287Z" fill="#263238"/>
<path d="M11.88 16.2706C11.88 16.3 11.8244 16.6913 11.8088 16.8794C11.7931 17.0675 11.6919 17.4306 11.7281 17.5319C11.7644 17.6331 12.0544 17.9738 12.1413 17.9956C12.1959 18.0085 12.2528 18.0085 12.3075 17.9956L12.4156 17.9738L12.315 17.8219L12.2525 17.6625L12.3294 17.3263C12.3294 17.3263 12.2988 17.7106 12.4156 17.79C12.5325 17.8694 12.5819 17.835 12.5644 17.7375C12.5469 17.64 12.5888 17.29 12.5681 17.1019C12.5475 16.9138 12.4525 16.7469 12.4819 16.5869C12.5113 16.4269 12.525 16.2681 12.525 16.2681L11.88 16.2706Z" fill="#AE7461"/>
<path d="M12.3019 17.4456C12.3019 17.4456 12.6444 17.7431 12.5431 18.4681C12.5431 18.4681 12.3425 18.5581 12.3019 18.4681C12.3019 18.4681 12.3981 17.8706 12.2344 17.6931L12.3019 17.4456Z" fill="#263238"/>
<path d="M13.285 18.7975C13.2645 18.8023 13.2436 18.805 13.2225 18.8056L13.0394 18.8175L12.4013 18.8494H12.3956L12.3913 18.8456L12.0163 18.5631C11.7156 18.3375 11.445 18.1319 11.25 17.9819L11.02 17.8031C10.991 17.7821 10.9637 17.7589 10.9381 17.7337C10.9696 17.7521 10.9995 17.773 11.0275 17.7962L11.2638 17.9669C11.4625 18.1119 11.7356 18.315 12.0356 18.5406L12.4106 18.8244L12.4013 18.8213L13.0394 18.8013L13.2231 18.7981C13.2437 18.7961 13.2644 18.7959 13.285 18.7975Z" fill="#263238"/>
<path d="M12.3606 18.8425C12.3694 18.8425 12.3206 19.6338 12.2513 20.6088C12.1819 21.5838 12.1188 22.3738 12.1094 22.3731C12.1 22.3725 12.1494 21.5819 12.2188 20.6063C12.2881 19.6306 12.3513 18.8419 12.3606 18.8425Z" fill="#263238"/>
<path d="M12.2356 20.1238C12.2134 20.1158 12.1924 20.1049 12.1731 20.0912C12.1319 20.0687 12.0738 20.0344 12.0031 19.9894C11.8194 19.8722 11.6422 19.7449 11.4725 19.6081C11.3028 19.4715 11.1408 19.3254 10.9875 19.1706C10.9288 19.1081 10.8825 19.0613 10.8519 19.0263C10.8344 19.0092 10.8191 18.9901 10.8063 18.9694C10.8264 18.9832 10.8449 18.9994 10.8613 19.0175L11.0038 19.1544C11.1244 19.2688 11.295 19.4237 11.4931 19.5831C11.6913 19.7425 11.8781 19.8769 12.0156 19.9706L12.1794 20.0812C12.1995 20.0934 12.2184 20.1077 12.2356 20.1238Z" fill="#263238"/>
<path d="M12.9231 15.415C12.915 15.4119 14.7869 16.79 14.7869 16.79L17.2981 15.0763L17.0394 14.5763C17.0394 14.5763 15.5163 15.1263 14.8519 14.9881C14.1875 14.85 13.2781 14.5763 13.2781 14.5763L12.9231 15.415Z" fill="#455A64"/>
<path d="M15.4125 26.7563V26.8312C15.4125 26.8312 14.1475 27.3531 14.1363 27.5944L16.6575 27.5569L16.6106 26.7188C16.4253 26.8106 16.2224 26.8614 16.0156 26.8679C15.8089 26.8744 15.6032 26.8363 15.4125 26.7563Z" fill="#263238"/>
<path d="M16.6581 27.5569L16.6469 27.3556L14.2356 27.465C14.2356 27.465 14.1244 27.515 14.1381 27.5944L16.6581 27.5569Z" fill="#455A64"/>
<path d="M15.4044 26.8381C15.4044 26.8506 15.4669 26.855 15.5294 26.8938C15.5919 26.9325 15.6238 26.9838 15.635 26.9788C15.6463 26.9738 15.6269 26.9031 15.5519 26.8575C15.4769 26.8119 15.4013 26.8263 15.4044 26.8381Z" fill="white"/>
<path d="M15.1413 26.9512C15.1413 26.9637 15.1925 26.9837 15.235 27.035C15.2775 27.0862 15.2906 27.1412 15.3025 27.1406C15.3144 27.14 15.3219 27.07 15.2675 27.0075C15.2131 26.945 15.1413 26.94 15.1413 26.9512Z" fill="white"/>
<path d="M14.9956 27.27C15.0069 27.27 15.0231 27.2075 14.9906 27.145C14.9581 27.0825 14.9 27.0525 14.895 27.0625C14.89 27.0725 14.9263 27.1088 14.9519 27.1638C14.9775 27.2188 14.9856 27.2694 14.9956 27.27Z" fill="white"/>
<path d="M12.9319 15.3838C12.9319 15.3838 12.4856 16.9513 13.2431 18.9513C14.0006 20.9513 14.4306 22.5519 14.4569 22.9831C14.4831 23.4144 14.5819 23.6781 14.9794 25.0425C15.2713 26.0388 15.46 26.7688 15.46 26.7688C15.591 26.8393 15.7356 26.8809 15.884 26.8909C16.0325 26.901 16.1813 26.8791 16.3206 26.8269C16.3206 26.8269 16.3281 24.4913 15.8894 22.8894C15.4506 21.2875 15.1506 18.7875 15.3006 17.8838C15.4506 16.98 15.1256 16.4656 15.1256 16.4656L12.9319 15.3838Z" fill="#AE7461"/>
<path d="M17.6356 17.3031C17.9275 15.8956 17.1419 14.7975 17.1419 14.7975L14.8056 16.7013C14.8056 16.7013 14.3113 22.3975 14.6031 23.1388C14.895 23.88 16.3206 26.9275 16.3206 26.9275L17.1569 26.6388C17.1569 26.6388 16.9569 24.4213 16.6144 23.5813C16.4238 23.1144 16.0519 22.8838 16.225 22.2988C16.3981 21.7138 17.3975 18.455 17.6356 17.3031Z" fill="#AE7461"/>
<path d="M17.18 26.44C17.18 26.44 16.555 27.0731 16.2125 26.7244L16.15 26.915L15.915 28.255C15.9068 28.2974 15.9147 28.3414 15.9371 28.3783C15.9595 28.4153 15.9949 28.4426 16.0363 28.455C16.0682 28.464 16.102 28.4639 16.1339 28.4547C16.1658 28.4456 16.1946 28.4277 16.2169 28.4031C16.4538 28.1375 17.3206 27.1531 17.3 27.0363L17.2656 26.7156C17.2581 26.6494 17.1938 26.4913 17.1938 26.4769L17.18 26.44Z" fill="#263238"/>
<path d="M16.0681 28.4606L17.2894 26.9244L17.2963 26.9944C17.3005 27.0232 17.2983 27.0526 17.2896 27.0804C17.2809 27.1082 17.2661 27.1337 17.2463 27.155C17.1506 27.31 16.8775 27.6613 16.2219 28.405C16.2028 28.4264 16.1789 28.4428 16.1521 28.4529C16.1254 28.4631 16.0965 28.4666 16.0681 28.4631V28.4606Z" fill="#455A64"/>
<path d="M16.39 27.7013C16.3445 27.6528 16.2899 27.6137 16.2294 27.5863C16.1649 27.5677 16.0975 27.5614 16.0306 27.5675C16.0306 27.5638 16.0494 27.5488 16.0888 27.54C16.1403 27.5292 16.1938 27.5334 16.2431 27.5519C16.2927 27.5696 16.3361 27.6013 16.3681 27.6431C16.3894 27.6769 16.3944 27.7013 16.39 27.7013Z" fill="white"/>
<path d="M16.2894 27.9356C16.2384 27.9131 16.186 27.8939 16.1325 27.8781C16.0768 27.8728 16.0209 27.8709 15.965 27.8725C15.9594 27.8644 16.0381 27.8219 16.14 27.8425C16.2419 27.8631 16.2981 27.93 16.2894 27.9356Z" fill="white"/>
<path d="M16.5894 27.3988C16.5136 27.3581 16.4348 27.3232 16.3538 27.2944C16.2163 27.2544 16.0981 27.2713 16.0963 27.26C16.1829 27.2288 16.2777 27.2288 16.3644 27.26C16.5119 27.3 16.5969 27.3931 16.5894 27.3988Z" fill="white"/>
<path d="M14.5606 21.9875C14.5624 22.005 14.5624 22.0225 14.5606 22.04C14.5606 22.0775 14.5606 22.1275 14.5575 22.19C14.5526 22.3733 14.5582 22.5567 14.5744 22.7394C14.5978 23.0101 14.6707 23.2743 14.7894 23.5187C14.855 23.6581 14.9306 23.8006 15.0044 23.9519C15.0781 24.1031 15.1494 24.2644 15.2188 24.425C15.36 24.7506 15.505 25.0563 15.6344 25.3363C15.7638 25.6163 15.8788 25.8681 15.9694 26.0831C16.06 26.2981 16.1281 26.4737 16.1719 26.5969C16.1944 26.6594 16.2094 26.7063 16.22 26.7388C16.2265 26.7551 16.2313 26.7721 16.2344 26.7894C16.226 26.774 16.2188 26.7579 16.2131 26.7413L16.1588 26.6019C16.1113 26.4806 16.04 26.3062 15.9463 26.0931C15.8525 25.88 15.7363 25.6288 15.6044 25.35C15.4725 25.0713 15.3269 24.7656 15.1856 24.4387C15.1156 24.275 15.0463 24.1175 14.9725 23.9669C14.8988 23.8163 14.8244 23.6731 14.7594 23.5331C14.6403 23.2848 14.5686 23.0165 14.5481 22.7419C14.5344 22.558 14.5325 22.3735 14.5425 22.1894C14.5469 22.1269 14.55 22.0769 14.5525 22.0394C14.5537 22.0219 14.5564 22.0045 14.5606 21.9875Z" fill="#AE7461"/>
<path d="M13.2981 13.7438C13.2981 13.7438 12.2788 16.025 12.6106 17.5394C12.9425 19.0538 14.1106 22.2575 14.1106 22.2575L16.4044 22.3731C16.4044 22.3731 17.41 19.0875 17.6163 18.1338C17.8894 16.8744 17.9575 15.7181 17.1519 14.0781L16.9775 13.5781L13.2981 13.7438Z" fill="#263238"/>
<path d="M14.4856 22.2406C14.4849 22.2348 14.4849 22.2289 14.4856 22.2231V22.1731C14.4856 22.1256 14.4894 22.0606 14.4925 21.9788C14.5 21.8069 14.5113 21.5644 14.525 21.2656C14.5556 20.6606 14.5981 19.8281 14.645 18.9131C14.69 18.1006 14.7319 17.3506 14.7631 16.7831V16.7919L14.2769 16.0644L14.1456 15.8638L14.1119 15.8113C14.1078 15.8054 14.1044 15.7991 14.1019 15.7925C14.1019 15.7925 14.1069 15.7975 14.1156 15.8088L14.1525 15.8594L14.29 16.055L14.7869 16.7756L14.79 16.7794V16.7844C14.7606 17.355 14.7225 18.1006 14.6806 18.915C14.6294 19.8319 14.5831 20.665 14.5494 21.2669C14.5306 21.5656 14.5156 21.8081 14.505 21.9794C14.4994 22.0613 14.495 22.1256 14.4913 22.1731C14.4913 22.1938 14.4913 22.21 14.4869 22.2238C14.4874 22.2294 14.487 22.2351 14.4856 22.2406Z" fill="#455A64"/>
<path d="M17.5156 9.04C17.6703 9.16281 17.7882 9.32586 17.8563 9.51125C18.0919 10.1006 18.6688 12.0956 18.6819 12.2281C18.7006 12.4231 18.8294 12.8963 18.7513 13.1481C18.6731 13.4 17.9531 13.5994 17.9531 13.5994L17.6044 12.7138L17.7294 12.5738L17.0219 10.7775V9.80688L17.5156 9.04Z" fill="#E0E0E0"/>
<path d="M18.5025 12.4244C18.5025 12.4294 18.4544 12.4119 18.3775 12.3994C18.2761 12.3834 18.1726 12.387 18.0725 12.41C17.9728 12.4333 17.8786 12.4758 17.795 12.535C17.7325 12.5806 17.6969 12.6175 17.6925 12.6138C17.7146 12.5755 17.7446 12.5425 17.7806 12.5169C17.8637 12.4496 17.961 12.402 18.0651 12.3776C18.1693 12.3533 18.2775 12.3528 18.3819 12.3763C18.4251 12.3834 18.4662 12.3998 18.5025 12.4244Z" fill="#263238"/>
<path d="M14.2925 8.63875C14.24 8.65188 13.0613 9.10438 12.9956 9.405C12.93 9.70563 13.4263 10.7338 13.4263 10.7338C13.4263 10.7338 13.1463 11.3719 13.4263 11.8238C13.4263 11.8238 13.1138 13.5969 13.0669 14.0738C13.0599 14.1204 13.0599 14.1678 13.0669 14.2144C13.1919 14.3231 17.26 14.315 17.2994 14.2369C17.3388 14.1588 16.9675 11.7431 17.02 11.5338C17.0725 11.3244 17.02 10.7763 17.02 10.7763C17.02 10.7763 17.5688 9.07813 17.5163 9.03875C17.4638 8.99938 16.0044 8.51688 16.0044 8.51688L15.7744 8.4725L14.605 8.57625L14.2925 8.63875Z" fill="#32CD32"/>
<path d="M13.1106 13.7331C13.1106 13.7331 17.0525 13.72 17.0669 13.75C17.0813 13.78 17.1588 14.1763 17.1588 14.1763L13.0638 14.0625L13.1106 13.7331Z" fill="white"/>
<path d="M13.2106 13.0825C13.2106 13.0825 17.0075 13.0938 17.0231 13.1238C17.0388 13.1538 17.0813 13.4413 17.0813 13.4413L13.1488 13.4681L13.2106 13.0825Z" fill="white"/>
<path d="M14.1006 8.71375L14.2925 8.64L14.51 8.38875L15.8756 8.25375L16.0506 8.48375L16.3819 8.625L15.1388 10.4619L14.1006 8.71375Z" fill="#E0E0E0"/>
<path d="M15.3994 9.6825L18.6175 14.5169C18.6175 14.5169 18.6419 15.3194 17.8513 15.1419L14.33 10.3731L15.3994 9.6825Z" fill="white"/>
<path d="M15.3994 9.6825L15.3806 9.69563L15.3269 9.73125L15.1181 9.86875L14.335 10.3794V10.3663C15.0944 11.3919 16.3619 13.105 17.7975 15.0438L17.86 15.13L17.8506 15.1244C17.9 15.1313 17.9488 15.1413 17.9975 15.1463H18.0706H18.1106L18.1463 15.1413C18.2422 15.1326 18.3329 15.0934 18.405 15.0294C18.4744 14.9645 18.526 14.883 18.555 14.7925C18.5851 14.7033 18.6007 14.6098 18.6013 14.5156V14.5238L16.3169 11.0763L15.6431 10.0556C15.5644 9.93625 15.5038 9.84313 15.4619 9.77938L15.415 9.7075L15.3994 9.68188C15.3994 9.68188 15.405 9.68875 15.4156 9.70438L15.4631 9.77375L15.6456 10.0444L16.3256 11.0575L18.6306 14.5075L18.6338 14.5113V14.5163C18.6335 14.614 18.6175 14.7111 18.5863 14.8038C18.5555 14.8994 18.5006 14.9855 18.4269 15.0538C18.3504 15.1226 18.2537 15.1647 18.1513 15.1738L18.1131 15.1794H18.075H17.9981C17.9481 15.1744 17.8981 15.1644 17.8475 15.1563H17.8419L17.8381 15.1506L17.7756 15.0644L14.3244 10.3769L14.3181 10.3688L14.3269 10.3638L15.12 9.85875L15.3294 9.72625L15.3831 9.69313L15.3994 9.6825Z" fill="#263238"/>
<path d="M13.2238 13.0288C13.2243 12.9977 13.2274 12.9668 13.2331 12.9363C13.2431 12.8738 13.2556 12.7875 13.2713 12.6863C13.3063 12.4663 13.355 12.1669 13.41 11.825V11.835C13.3559 11.7304 13.3184 11.618 13.2988 11.5019C13.2609 11.2395 13.3002 10.9717 13.4119 10.7313V10.7438C13.3175 10.5306 13.2375 10.3519 13.18 10.2213C13.1538 10.1588 13.1331 10.1125 13.1175 10.0744C13.1091 10.0572 13.1024 10.0392 13.0975 10.0206C13.1087 10.0361 13.118 10.0529 13.125 10.0706L13.1956 10.2144C13.2581 10.3444 13.3394 10.5213 13.4381 10.7319V10.7375L13.435 10.7444C13.3292 10.9793 13.2926 11.2394 13.3294 11.4944C13.3482 11.6071 13.384 11.7162 13.4356 11.8181V11.8231V11.8263C13.3763 12.1675 13.3238 12.4663 13.2856 12.6856L13.2388 12.9356C13.2359 12.967 13.2309 12.9981 13.2238 13.0288Z" fill="#263238"/>
<path d="M16.9563 10.965C16.96 10.9159 16.9694 10.8675 16.9844 10.8206C17.0069 10.7325 17.0431 10.6119 17.0913 10.4813C17.1394 10.3506 17.19 10.2356 17.23 10.1538C17.2485 10.1079 17.2729 10.0646 17.3025 10.025C17.2894 10.0725 17.2721 10.1188 17.2506 10.1631C17.2163 10.2469 17.1694 10.3631 17.1219 10.4925C17.0744 10.6219 17.0344 10.7425 17.0069 10.8269C16.995 10.8746 16.9781 10.9209 16.9563 10.965Z" fill="#263238"/>
<path d="M15.0836 10.4325C15.3788 10.2427 15.5071 9.91638 15.3703 9.70355C15.2335 9.49073 14.8833 9.47203 14.5881 9.66178C14.293 9.85153 14.1646 10.1779 14.3014 10.3907C14.4382 10.6035 14.7884 10.6222 15.0836 10.4325Z" fill="#E0E0E0"/>
<path d="M15.3994 9.6825C15.3705 9.64822 15.3375 9.61758 15.3013 9.59125C15.1955 9.52886 15.0708 9.50667 14.95 9.52875C14.7706 9.55794 14.6052 9.6438 14.4781 9.77375C14.4034 9.84934 14.3469 9.94107 14.3131 10.0419C14.2919 10.0941 14.2835 10.1508 14.2889 10.207C14.2942 10.2631 14.313 10.3172 14.3436 10.3646C14.3743 10.4119 14.416 10.4512 14.4651 10.479C14.5141 10.5068 14.5692 10.5224 14.6256 10.5244C14.7314 10.5354 14.8384 10.5219 14.9381 10.485C15.1089 10.4226 15.2553 10.3075 15.3563 10.1563C15.4258 10.0552 15.4567 9.93253 15.4431 9.81063C15.4338 9.76747 15.4195 9.72553 15.4006 9.68563C15.4083 9.69472 15.415 9.70456 15.4206 9.715C15.4367 9.74507 15.4485 9.77726 15.4556 9.81063C15.4746 9.9364 15.4461 10.0647 15.3756 10.1706C15.2742 10.3287 15.1242 10.4496 14.9481 10.515C14.8441 10.5543 14.7325 10.569 14.6219 10.5581C14.5608 10.5555 14.5013 10.5382 14.4484 10.5078C14.3954 10.4774 14.3505 10.4347 14.3174 10.3833C14.2843 10.3319 14.2641 10.2734 14.2583 10.2125C14.2526 10.1517 14.2615 10.0904 14.2844 10.0338C14.3198 9.92856 14.3793 9.8331 14.4581 9.755C14.5903 9.6213 14.7626 9.53458 14.9488 9.50813C15.0742 9.48714 15.2029 9.51414 15.3094 9.58375C15.337 9.60371 15.3614 9.62773 15.3819 9.655C15.3886 9.66359 15.3944 9.6728 15.3994 9.6825Z" fill="#263238"/>
<path d="M18.3969 15.0613C18.3894 15.0663 17.6469 14.03 16.7419 12.7488C15.8369 11.4675 15.1056 10.4175 15.1106 10.4125C15.1156 10.4075 15.8606 11.4438 16.7656 12.725C17.6706 14.0063 18.4044 15.0556 18.3969 15.0613Z" fill="#263238"/>
<path d="M14.8938 14.3125C14.8844 14.3125 14.8969 13.625 14.9213 12.7744C14.9456 11.9238 14.9725 11.2369 14.9838 11.2375C14.995 11.2381 14.9806 11.925 14.9563 12.7756C14.9319 13.6263 14.9025 14.3125 14.8938 14.3125Z" fill="#263238"/>
<path d="M15.1138 9.045C15.0955 9.08955 15.0715 9.13156 15.0425 9.17C14.9746 9.27035 14.8967 9.36354 14.81 9.44813L14.7969 9.46063L14.7863 9.44563C14.7481 9.3925 14.7075 9.33438 14.6663 9.27313C14.5556 9.11 14.4613 8.96063 14.3963 8.84688C14.3582 8.78741 14.3256 8.72466 14.2988 8.65938C14.3418 8.71411 14.3811 8.77175 14.4163 8.83188C14.4863 8.94 14.5825 9.08938 14.6931 9.25188C14.7344 9.31438 14.7744 9.37063 14.8119 9.42438H14.7881C14.8746 9.34185 14.9544 9.25261 15.0269 9.1575C15.0531 9.11794 15.0821 9.08034 15.1138 9.045Z" fill="#263238"/>
<path d="M16.0619 8.56375C16.0231 8.62658 15.98 8.68671 15.9331 8.74375C15.85 8.8525 15.7338 9.00125 15.6038 9.16375L15.4056 9.41063L15.3944 9.425L15.3825 9.41125C15.2994 9.31188 15.23 9.2275 15.1819 9.16688C15.1546 9.13661 15.1303 9.10375 15.1094 9.06875C15.1408 9.09469 15.1695 9.1238 15.195 9.15563C15.2475 9.2125 15.32 9.29438 15.405 9.39188H15.3825L15.5788 9.14188C15.7088 8.97875 15.8288 8.82938 15.915 8.7275C15.9596 8.6692 16.0088 8.61445 16.0619 8.56375Z" fill="#263238"/>
<path d="M15.9406 12.8081C15.9223 12.7939 15.9088 12.7744 15.9018 12.7524C15.8948 12.7303 15.8947 12.7066 15.9015 12.6844C15.9083 12.6623 15.9216 12.6427 15.9398 12.6283C15.9579 12.6139 15.98 12.6053 16.0031 12.6038C16.0324 12.6026 16.0616 12.6041 16.0906 12.6081C16.2613 12.6294 16.65 12.7331 16.7706 12.7131C16.8913 12.6931 16.9944 12.6544 17.0531 12.5556C17.1119 12.4569 16.8775 12.1063 16.9038 11.9356C16.93 11.765 17.0344 11.8106 17.0625 11.8506C17.0906 11.8906 17.245 12.1631 17.3125 12.2638C17.38 12.3644 17.6919 12.715 17.8031 12.7481C17.9144 12.7813 17.9838 12.7981 17.9838 12.7981C18.0444 12.8191 18.0989 12.8548 18.1425 12.9018C18.1861 12.9489 18.2175 13.006 18.2338 13.0681C18.2813 13.2756 18.1019 13.5094 17.9419 13.5056C17.7819 13.5019 16.605 13.5581 16.5413 13.5156C16.4775 13.4731 16.345 13.3906 16.3238 13.2656C16.3238 13.2656 16.0469 13.145 16.0413 13.0544C16.0413 13.0544 16.0475 12.8863 16.045 12.8669C16.0071 12.8533 15.9719 12.8335 15.9406 12.8081Z" fill="#AE7461"/>
<path d="M16.6875 12.9931C16.5726 12.9929 16.4583 12.9773 16.3475 12.9469C16.2343 12.9274 16.1243 12.8924 16.0206 12.8431C16.1333 12.8611 16.245 12.8853 16.355 12.9156C16.4672 12.9351 16.5782 12.961 16.6875 12.9931Z" fill="#FF9A6C"/>
<path d="M16.8606 13.2488C16.8206 13.2576 16.7794 13.2597 16.7388 13.255C16.5415 13.2468 16.3473 13.203 16.1656 13.1256C16.1266 13.1124 16.0901 13.0928 16.0575 13.0675C16.0619 13.0588 16.2313 13.135 16.4531 13.1844C16.675 13.2338 16.8606 13.2388 16.8606 13.2488Z" fill="#FF9A6C"/>
<path d="M16.885 13.3819C16.7863 13.39 16.6869 13.3824 16.5906 13.3594C16.4926 13.3466 16.3972 13.3184 16.3081 13.2756C16.4053 13.287 16.5017 13.3041 16.5969 13.3269C16.6939 13.3395 16.7901 13.3579 16.885 13.3819Z" fill="#FF9A6C"/>
<path d="M16.9706 6.97875C16.8238 6.83313 16.5806 6.76438 16.4081 6.875L15.825 7.45563C15.8247 7.56661 15.8519 7.67594 15.9041 7.7739C15.9563 7.87186 16.0318 7.95542 16.1241 8.01714C16.2163 8.07886 16.3224 8.11685 16.4328 8.12771C16.5433 8.13857 16.6547 8.12198 16.7572 8.07941C16.8597 8.03683 16.9501 7.9696 17.0203 7.88368C17.0906 7.79776 17.1385 7.69581 17.1599 7.5869C17.1813 7.47799 17.1754 7.36549 17.1428 7.25939C17.1102 7.1533 17.0519 7.0569 16.9731 6.97875H16.9706Z" fill="#263238"/>
<path d="M16.77 5.9375C16.7275 5.85605 16.6575 5.79228 16.5725 5.7575C15.7244 5.42313 14.7438 5.445 13.8575 5.68188C13.6269 5.74438 13.38 5.83438 13.27 6.02875V6.04188C13.2225 6.16688 13.2925 6.33313 13.4 6.425C13.5161 6.51277 13.6505 6.57323 13.7931 6.60188C14.4681 6.77688 15.1881 6.73688 15.8825 6.64188C16.0455 6.62435 16.2063 6.59043 16.3625 6.54063C16.5158 6.49241 16.6529 6.40289 16.7588 6.28188C16.7969 6.2331 16.8186 6.17343 16.8206 6.11153C16.8226 6.04962 16.8049 5.98867 16.77 5.9375Z" fill="#32CD32"/>
<g opacity="0.3">
<path d="M16.77 5.9375C16.7275 5.85605 16.6575 5.79228 16.5725 5.7575C15.7244 5.42313 14.7438 5.445 13.8575 5.68188C13.6269 5.74438 13.38 5.83438 13.27 6.02875V6.04188C13.2225 6.16688 13.2925 6.33313 13.4 6.425C13.5161 6.51277 13.6505 6.57323 13.7931 6.60188C14.4681 6.77688 15.1881 6.73688 15.8825 6.64188C16.0455 6.62435 16.2063 6.59043 16.3625 6.54063C16.5158 6.49241 16.6529 6.40289 16.7588 6.28188C16.7969 6.2331 16.8186 6.17343 16.8206 6.11153C16.8226 6.04962 16.8049 5.98867 16.77 5.9375Z" fill="black"/>
</g>
<path d="M16.2981 5.36313C16.1464 5.16838 15.9529 5.01016 15.7319 4.90015C15.511 4.79014 15.2681 4.73114 15.0213 4.7275C14.7313 4.7225 14.6113 4.78313 14.4025 4.83938C14.1934 4.88944 14.0086 5.01159 13.8806 5.18438C13.7325 5.39438 13.6081 5.63 13.5806 5.885C13.5439 6.14663 13.5312 6.41106 13.5425 6.675C13.5546 6.94008 13.6398 7.19663 13.7888 7.41625L14.4588 7.53313C14.8281 7.54563 15.2031 7.5575 15.5631 7.47063C15.9231 7.38375 16.2738 7.1925 16.4669 6.87688C16.7356 6.44063 16.6231 5.76375 16.2981 5.36313Z" fill="#263238"/>
<path d="M15.7019 5.35875L14.8094 5.00375L14.5763 5.03063C14.0513 5.03063 13.6894 5.61125 13.6863 6.03625C13.6825 6.50875 13.6963 7.085 13.7713 7.43313C13.9225 8.13313 14.5213 8.19125 14.5213 8.19125C14.5133 8.27622 14.51 8.36155 14.5113 8.44688L15.1038 9.07188L15.8763 8.30688L15.9388 5.59688C15.9359 5.53486 15.91 5.47613 15.8663 5.43211C15.8225 5.38809 15.7639 5.36194 15.7019 5.35875Z" fill="#AE7461"/>
<path d="M14.0131 6.58188C14.0141 6.60553 14.0244 6.62784 14.0417 6.64399C14.059 6.66013 14.082 6.6688 14.1056 6.66813C14.1172 6.66846 14.1286 6.66648 14.1394 6.66229C14.1502 6.65811 14.16 6.65181 14.1682 6.64377C14.1765 6.63572 14.1831 6.6261 14.1876 6.61547C14.1921 6.60484 14.1944 6.59342 14.1944 6.58188C14.1936 6.55822 14.1835 6.53585 14.1663 6.51959C14.1491 6.50333 14.1262 6.49449 14.1025 6.495C14.0909 6.49475 14.0794 6.49681 14.0686 6.50106C14.0578 6.5053 14.048 6.51165 14.0396 6.51974C14.0313 6.52782 14.0247 6.53748 14.0201 6.54815C14.0156 6.55881 14.0132 6.57028 14.0131 6.58188Z" fill="#263238"/>
<path d="M13.8463 6.2725C13.8581 6.28375 13.9238 6.22938 14.0213 6.22375C14.1188 6.21813 14.1925 6.26375 14.2025 6.25125C14.2125 6.23875 14.195 6.225 14.1625 6.20375C14.1188 6.17704 14.068 6.16439 14.0169 6.1675C13.9662 6.17004 13.9176 6.18865 13.8781 6.22063C13.8494 6.24563 13.8406 6.2675 13.8463 6.2725Z" fill="#263238"/>
<path d="M14.4725 7.03625C14.4202 7.02315 14.3664 7.01665 14.3125 7.01688C14.2875 7.01688 14.2638 7.01188 14.2588 6.995C14.2552 6.96951 14.2595 6.94354 14.2713 6.92063C14.2913 6.85813 14.3119 6.79563 14.3338 6.72688C14.4206 6.45188 14.4825 6.22688 14.4719 6.2225C14.4613 6.21813 14.3806 6.43938 14.2931 6.71438C14.2725 6.7825 14.2525 6.84688 14.2306 6.90875C14.217 6.93987 14.2144 6.97468 14.2231 7.0075C14.2273 7.01603 14.2333 7.0235 14.2408 7.02935C14.2483 7.0352 14.257 7.03927 14.2663 7.04125C14.2802 7.04451 14.2945 7.04577 14.3088 7.045C14.3635 7.04929 14.4185 7.04635 14.4725 7.03625Z" fill="#263238"/>
<path d="M14.5181 8.19063C14.8507 8.17808 15.1733 8.07359 15.45 7.88875C15.45 7.88875 15.225 8.38875 14.5125 8.36438L14.5181 8.19063Z" fill="#6F4439"/>
<path d="M14.7625 7.08813C14.7469 7.08813 14.7525 7.19375 14.6656 7.27563C14.5788 7.3575 14.4663 7.35 14.4663 7.365C14.4663 7.38 14.4925 7.38438 14.54 7.38313C14.6019 7.38039 14.661 7.35607 14.7069 7.31438C14.751 7.27419 14.7777 7.21834 14.7813 7.15875C14.7831 7.1125 14.77 7.08688 14.7625 7.08813Z" fill="#263238"/>
<path d="M13.8794 5.93125C13.8969 5.95438 13.9706 5.93125 14.0581 5.93688C14.1456 5.9425 14.2194 5.95813 14.2375 5.93688C14.245 5.92563 14.2344 5.90313 14.2031 5.88125C14.16 5.85412 14.1102 5.83941 14.0593 5.83875C14.0083 5.83809 13.9582 5.8515 13.9144 5.8775C13.8825 5.8975 13.8719 5.92 13.8794 5.93125Z" fill="#263238"/>
<path d="M15.1019 6.54063C15.1026 6.56425 15.094 6.5872 15.078 6.6046C15.062 6.622 15.0398 6.63246 15.0163 6.63375C15.0047 6.63487 14.9931 6.63367 14.9821 6.63023C14.971 6.62679 14.9608 6.62118 14.9519 6.61373C14.9431 6.60628 14.9358 6.59714 14.9305 6.58684C14.9253 6.57654 14.9221 6.56529 14.9213 6.55375C14.9206 6.53013 14.9291 6.50717 14.9451 6.48978C14.9611 6.47238 14.9833 6.46192 15.0069 6.46063C15.0184 6.45942 15.0301 6.46056 15.0411 6.46396C15.0522 6.46737 15.0625 6.47297 15.0714 6.48044C15.0802 6.48791 15.0875 6.49708 15.0928 6.50743C15.098 6.51777 15.1011 6.52906 15.1019 6.54063Z" fill="#263238"/>
<path d="M15.1644 6.235C15.1538 6.24688 15.0838 6.19688 14.9863 6.19938C14.8888 6.20188 14.8181 6.25125 14.8075 6.23938C14.7969 6.2275 14.8131 6.2125 14.8438 6.18938C14.8855 6.15941 14.9355 6.14304 14.9869 6.1425C15.0377 6.14141 15.0877 6.15651 15.1294 6.18563C15.1594 6.20813 15.1731 6.22938 15.1644 6.235Z" fill="#263238"/>
<path d="M15.1063 5.9225C15.0875 5.945 15.0113 5.9225 14.9188 5.9225C14.8263 5.9225 14.7519 5.94063 14.7313 5.9175C14.7231 5.90625 14.735 5.88375 14.7681 5.8625C14.8152 5.83568 14.869 5.82308 14.9231 5.82625C14.9757 5.8256 15.0274 5.84014 15.0719 5.86813C15.1031 5.88875 15.1144 5.91188 15.1063 5.9225Z" fill="#263238"/>
<path d="M15.8169 6.78438C15.8138 6.73188 15.8681 6.60438 15.9194 6.59375C16.0569 6.56438 16.3075 6.56188 16.3294 6.91375C16.3588 7.395 15.8694 7.32563 15.8681 7.31188C15.8669 7.29813 15.8263 6.96625 15.8169 6.78438Z" fill="#AE7461"/>
<path d="M15.99 7.1275C15.99 7.1275 15.9988 7.13313 16.0131 7.13875C16.0332 7.14675 16.0556 7.14675 16.0756 7.13875C16.1256 7.11688 16.1631 7.03375 16.16 6.94688C16.1588 6.90551 16.1483 6.86494 16.1294 6.82813C16.1242 6.81303 16.1154 6.79944 16.1037 6.78854C16.0921 6.77764 16.0779 6.76977 16.0625 6.76563C16.0527 6.76374 16.0425 6.76533 16.0337 6.77012C16.025 6.77491 16.0181 6.7826 16.0144 6.79188C16.0088 6.80563 16.0144 6.815 16.01 6.81625C16.0056 6.8175 15.9994 6.80875 16.0019 6.78875C16.0035 6.77664 16.0095 6.76554 16.0188 6.7575C16.0249 6.752 16.0322 6.74779 16.04 6.74511C16.0478 6.74243 16.0561 6.74133 16.0644 6.74188C16.0844 6.7446 16.1035 6.7524 16.1196 6.76455C16.1358 6.77669 16.1486 6.79276 16.1569 6.81125C16.1799 6.85171 16.1926 6.89722 16.1938 6.94375C16.1969 7.04063 16.1525 7.13125 16.0844 7.15875C16.0717 7.1633 16.0582 7.16498 16.0448 7.16368C16.0314 7.16239 16.0184 7.15814 16.0069 7.15125C15.9913 7.13875 15.9856 7.12875 15.99 7.1275Z" fill="#6F4439"/>
<path d="M15.9394 6.595L15.8144 6.72C15.2863 6.215 14.2519 4.94938 14.3144 5.025C14.555 4.93506 14.8144 4.90691 15.0688 4.94313C15.4613 5.01 16.2056 5.20625 16.1938 5.66938C16.1819 6.1325 15.9394 6.595 15.9394 6.595Z" fill="#263238"/>
<path d="M16.5906 6.48875C16.5899 6.47926 16.5876 6.46996 16.5838 6.46125C16.5753 6.43499 16.5646 6.40948 16.5519 6.385C16.5031 6.2964 16.436 6.21926 16.355 6.15875C16.2352 6.0714 16.1011 6.00562 15.9588 5.96438C15.786 5.91629 15.6158 5.85955 15.4488 5.79438C15.2837 5.7244 15.1276 5.63502 14.9838 5.52813C14.8657 5.44055 14.7559 5.34244 14.6556 5.235C14.5887 5.16207 14.5261 5.08528 14.4681 5.005L14.4206 4.93875C14.4159 4.93044 14.41 4.92286 14.4031 4.91625C14.4068 4.92504 14.4114 4.93342 14.4169 4.94125C14.4263 4.95688 14.4406 4.98125 14.46 5.01063C14.517 5.09356 14.5797 5.17249 14.6475 5.24688C14.7467 5.35728 14.8563 5.45776 14.975 5.54688C15.12 5.65563 15.2776 5.74649 15.4444 5.8175C15.6118 5.88277 15.7827 5.9389 15.9563 5.98563C16.0968 6.02545 16.2295 6.08885 16.3488 6.17313C16.4296 6.23054 16.4973 6.30446 16.5475 6.39C16.5781 6.45125 16.5888 6.49 16.5906 6.48875Z" fill="#455A64"/>
<path d="M16.4538 6.56438C16.4552 6.52849 16.4491 6.49269 16.4356 6.45938C16.4007 6.36795 16.339 6.28913 16.2588 6.23313C16.1398 6.15449 16.006 6.1009 15.8656 6.07563C15.6975 6.04144 15.5337 5.98839 15.3775 5.9175C15.2207 5.84458 15.0737 5.75218 14.94 5.6425C14.8309 5.55268 14.7308 5.45242 14.6413 5.34313C14.5813 5.26855 14.5258 5.1905 14.475 5.10938L14.435 5.04188C14.4308 5.03389 14.4258 5.02635 14.42 5.01938C14.4225 5.02812 14.426 5.03652 14.4306 5.04438C14.4406 5.0625 14.4525 5.08563 14.4669 5.11438C14.5148 5.19794 14.5687 5.27794 14.6281 5.35375C14.7165 5.46596 14.8165 5.5686 14.9263 5.66C15.0592 5.77192 15.2063 5.86585 15.3638 5.93938C15.5213 6.01136 15.6868 6.06444 15.8569 6.0975C15.9947 6.12165 16.1265 6.17238 16.245 6.24688C16.3238 6.30051 16.3856 6.37554 16.4231 6.46313C16.4364 6.49586 16.4467 6.52975 16.4538 6.56438Z" fill="#455A64"/>
<path d="M13.57 5.97938C13.84 5.83533 14.1392 5.75435 14.445 5.7425C15.815 5.71063 16.6038 6.11375 16.6038 6.11375C16.5905 5.99854 16.5696 5.88433 16.5413 5.77188C16.5413 5.77188 14.6038 5.52188 14.5906 5.52188C14.5775 5.52188 13.9794 5.62938 13.9656 5.63438C13.9519 5.63938 13.5969 5.69688 13.5969 5.69688L13.57 5.97938Z" fill="#455A64"/>
<path d="M13.2594 6.05188C13.2594 6.05188 13.435 5.65625 14.9881 5.65813C16.4988 5.65813 16.82 6.08813 16.82 6.08813C16.8157 6.00047 16.7875 5.91565 16.7384 5.84285C16.6894 5.77004 16.6215 5.712 16.5419 5.675C16.5186 5.28553 16.3593 4.9166 16.0919 4.6325C15.9331 4.47 15.6513 4.33375 15.5919 4.29125L15.5806 4.20125C15.5806 4.20125 15.4719 4.09188 14.965 4.09563C14.4413 4.1 14.34 4.255 14.34 4.255L14.3306 4.33875C14.086 4.46856 13.8801 4.6609 13.7339 4.89618C13.5878 5.13146 13.5067 5.40127 13.4988 5.67813C13.4988 5.67813 13.2206 5.85938 13.2594 6.05188Z" fill="#32CD32"/>
<g opacity="0.3">
<path d="M14.4013 4.6075C14.3955 4.48679 14.3745 4.3673 14.3388 4.25188L14.3294 4.33563C14.3751 4.56214 14.4015 4.79214 14.4081 5.02313C14.4106 4.8825 14.4106 4.74313 14.4013 4.6075Z" fill="black"/>
</g>
<g opacity="0.3">
<path d="M15.5806 4.1975C15.4994 4.2925 15.3594 4.45625 15.3375 4.59125C15.3186 4.7281 15.3113 4.8663 15.3156 5.00438C15.3894 4.54875 15.4581 4.4825 15.5925 4.29125L15.5806 4.1975Z" fill="black"/>
</g>
<path d="M16.5419 5.675C16.5312 5.6744 16.5207 5.6723 16.5106 5.66875L16.4231 5.64438C16.3856 5.63313 16.3394 5.62 16.285 5.6075C16.2306 5.595 16.1694 5.57688 16.0975 5.56438C15.7393 5.48917 15.3752 5.44609 15.0094 5.43563C14.6451 5.41869 14.2802 5.44745 13.9231 5.52125C13.8556 5.53938 13.7944 5.55563 13.7413 5.57313C13.6881 5.59063 13.6444 5.60875 13.6088 5.62438L13.5281 5.66563C13.5187 5.6707 13.5089 5.67488 13.4988 5.67813C13.4988 5.67813 13.5075 5.67063 13.525 5.66L13.6031 5.61313C13.6381 5.595 13.6838 5.57813 13.7356 5.55563C13.7875 5.53313 13.85 5.51813 13.9175 5.49938C14.2769 5.41764 14.6457 5.38526 15.0138 5.40313C15.3816 5.4133 15.7475 5.45978 16.1063 5.54188C16.175 5.55625 16.2363 5.57563 16.29 5.59C16.3366 5.60167 16.3825 5.61586 16.4275 5.6325L16.5131 5.6625C16.523 5.66594 16.5326 5.67012 16.5419 5.675Z" fill="#263238"/>
<path d="M15.5806 4.20125C15.56 4.23864 15.535 4.27346 15.5063 4.305C15.4392 4.37964 15.3877 4.46699 15.355 4.56188C15.3274 4.65899 15.3143 4.75967 15.3163 4.86063C15.3197 4.90222 15.3197 4.94403 15.3163 4.98563C15.3013 4.94564 15.2935 4.90333 15.2931 4.86063C15.2846 4.7567 15.2949 4.65209 15.3238 4.55188C15.3573 4.45258 15.4138 4.36262 15.4888 4.28938C15.5152 4.25591 15.5461 4.22625 15.5806 4.20125Z" fill="#263238"/>
<path d="M14.4169 4.99688C14.4075 4.99688 14.4056 4.82813 14.3838 4.62188C14.3619 4.41563 14.3313 4.24688 14.34 4.24688C14.3829 4.36618 14.4085 4.49097 14.4163 4.6175C14.4348 4.74327 14.435 4.87105 14.4169 4.99688Z" fill="#263238"/>
<g opacity="0.3">
<path d="M14.3075 4.50563C14.3099 4.48523 14.3051 4.46464 14.2938 4.4475C14.2864 4.44052 14.2774 4.43544 14.2676 4.43272C14.2578 4.42999 14.2474 4.42971 14.2375 4.43188C14.2177 4.43734 14.1992 4.44669 14.1831 4.45938C14.0055 4.58195 13.8571 4.74216 13.7484 4.92861C13.6397 5.11506 13.5735 5.32317 13.5544 5.53813C13.5541 5.54291 13.5552 5.54768 13.5574 5.55191C13.5597 5.55613 13.5631 5.55966 13.5672 5.56211C13.5713 5.56456 13.576 5.56583 13.5808 5.56579C13.5856 5.56575 13.5903 5.56439 13.5944 5.56188C13.7595 5.4704 13.9376 5.40444 14.1225 5.36625C14.185 5.35313 14.2713 5.35563 14.2963 5.29563C14.3087 5.25908 14.3138 5.22041 14.3113 5.18188L14.3075 4.50563Z" fill="white"/>
</g>
<path d="M1.85895 15.4903L1.66355 15.6031L2.53824 17.1182L2.73364 17.0053L1.85895 15.4903Z" fill="#E0E0E0"/>
<path d="M1.84313 15.2206L1.85125 15.4762L1.63875 15.6012L1.41875 15.4644C1.40835 15.5158 1.4106 15.569 1.42529 15.6194C1.43999 15.6698 1.4667 15.7159 1.50313 15.7537C1.53956 15.7915 1.58462 15.8199 1.63444 15.8365C1.68426 15.853 1.73735 15.8572 1.78916 15.8487C1.84096 15.8402 1.88994 15.8193 1.93187 15.7877C1.9738 15.7561 2.00744 15.7148 2.0299 15.6674C2.05235 15.6199 2.06296 15.5677 2.0608 15.5153C2.05864 15.4628 2.04378 15.4117 2.0175 15.3663C1.9787 15.2984 1.91682 15.2467 1.84313 15.2206Z" fill="#E0E0E0"/>
<path d="M2.53911 15.6446L2.37132 15.7415L3.12257 17.0427L3.29037 16.9458L2.53911 15.6446Z" fill="#E0E0E0"/>
<path d="M2.52625 15.4119L2.53313 15.6319L2.35063 15.7369L2.16313 15.62C2.15268 15.6723 2.1575 15.7266 2.17703 15.7762C2.19655 15.8259 2.22996 15.8689 2.27325 15.9001C2.31655 15.9313 2.36791 15.9494 2.4212 15.9522C2.47449 15.955 2.52747 15.9424 2.57381 15.916C2.62015 15.8895 2.6579 15.8503 2.68255 15.8029C2.7072 15.7556 2.71771 15.7022 2.71282 15.649C2.70794 15.5959 2.68787 15.5453 2.65501 15.5032C2.62215 15.4612 2.57789 15.4295 2.5275 15.4119H2.52625Z" fill="#E0E0E0"/>
<path d="M3.04813 8.64562C3.04813 8.64562 3.08375 8.52062 3.47938 8.37437C3.875 8.22812 4.82438 7.9 4.82438 7.9C4.82438 7.9 5.04688 8.22937 5.64188 8.2575C6.18688 8.28375 6.5075 7.84875 6.5075 7.84875C6.5075 7.84875 8.17188 8.27125 8.17375 8.31125C8.17563 8.35125 7.95375 10.9025 7.95375 10.9025L7.65625 13.9112L3.5775 13.9737L3.52938 11.0187L3.04813 8.64562Z" fill="#E0E0E0"/>
<path d="M3.09438 8.58312C3.05438 8.61187 1.81875 10.8887 1.81875 10.8887C1.81875 10.8887 2.95563 11.6769 3.21563 11.6944L3.54063 11.0931L3.09438 8.58312Z" fill="#E0E0E0"/>
<path d="M8.17313 8.31125L8.215 8.34062C8.43717 8.49348 8.62809 8.68738 8.7775 8.91187L9.82625 10.49L8.54438 11.4062L7.98563 10.5137L7.76938 9.54562L8.17313 8.31125Z" fill="#E0E0E0"/>
<path d="M8.17313 9.025C8.17398 9.04599 8.17209 9.067 8.1675 9.0875L8.14063 9.26313C8.11813 9.41063 8.08813 9.61563 8.0625 9.84188C8.03688 10.0681 8.02 10.275 8.00938 10.4244C8.00438 10.4931 8 10.5494 7.99625 10.6012C7.99647 10.6224 7.99352 10.6435 7.9875 10.6637C7.98406 10.6431 7.98281 10.6222 7.98375 10.6012C7.98375 10.5594 7.98375 10.4987 7.98375 10.4237C7.98875 10.2737 8.00188 10.0669 8.0275 9.83938C8.05313 9.61188 8.09 9.40687 8.11563 9.25937C8.13 9.18625 8.1425 9.12687 8.1525 9.08562C8.15716 9.06473 8.16407 9.0444 8.17313 9.025Z" fill="#263238"/>
<path d="M3.3925 9.27125C3.40188 9.27125 3.44438 9.71812 3.48875 10.2712C3.53313 10.8244 3.56063 11.2712 3.55125 11.2712C3.54188 11.2712 3.49938 10.825 3.45563 10.2712C3.41188 9.7175 3.38375 9.2725 3.3925 9.27125Z" fill="#263238"/>
<path d="M4.33813 4.96125C4.2638 4.96876 4.18934 4.94839 4.12919 4.90409C4.06904 4.85979 4.02749 4.79472 4.01262 4.72151C3.99774 4.6483 4.0106 4.57218 4.04869 4.50792C4.08678 4.44366 4.14739 4.39584 4.21875 4.37375C4.1728 4.32614 4.14316 4.26517 4.13408 4.19963C4.125 4.13408 4.13696 4.06735 4.16823 4.00904C4.19951 3.95073 4.24848 3.90385 4.30811 3.87516C4.36773 3.84646 4.43492 3.83744 4.5 3.84937C4.50367 3.78465 4.52405 3.72198 4.55915 3.66748C4.59426 3.61299 4.6429 3.56852 4.70032 3.53843C4.75774 3.50833 4.82198 3.49364 4.88677 3.49578C4.95156 3.49791 5.01469 3.51681 5.07 3.55062C5.14407 3.49274 5.23537 3.4613 5.32938 3.4613C5.42338 3.4613 5.51468 3.49274 5.58875 3.55062C5.65203 3.53992 5.71708 3.54979 5.77434 3.57879C5.8316 3.60779 5.87804 3.65439 5.90686 3.71174C5.93567 3.76908 5.94533 3.83416 5.93443 3.89741C5.92352 3.96066 5.89261 4.01874 5.84625 4.06312" fill="#263238"/>
<path d="M5.64938 3.84562H5.58313C5.26207 3.84122 4.95114 3.95788 4.71221 4.17237C4.47328 4.38686 4.32388 4.68346 4.29375 5.00312C4.23563 5.62 4.17938 6.30187 4.17875 6.63312C4.17875 7.32062 4.8625 7.435 4.8625 7.435L4.79313 8.2575L6.45813 8.22875L6.64563 5.2425C6.71688 4.53125 6.36063 3.89687 5.64938 3.84562Z" fill="#AE7461"/>
<path d="M4.85688 7.43313C5.17525 7.43794 5.4883 7.35117 5.75875 7.18313C5.75875 7.18313 5.54063 7.67375 4.8575 7.60312L4.85688 7.43313Z" fill="#6F4439"/>
<path d="M4.5625 5.625C4.56198 5.65057 4.57139 5.67534 4.58876 5.69411C4.60612 5.71288 4.6301 5.72417 4.65563 5.72562C4.66813 5.72674 4.68072 5.72534 4.69268 5.72152C4.70463 5.71771 4.71571 5.71155 4.72525 5.7034C4.73479 5.69525 4.74262 5.68528 4.74826 5.67407C4.75391 5.66287 4.75726 5.65064 4.75813 5.63812C4.75865 5.61262 4.74922 5.58792 4.73183 5.56925C4.71445 5.55058 4.69048 5.53942 4.665 5.53812C4.65255 5.53701 4.64 5.53839 4.62809 5.54216C4.61617 5.54594 4.60512 5.55205 4.59559 5.56013C4.58605 5.56821 4.57822 5.57811 4.57254 5.58925C4.56686 5.60038 4.56345 5.61253 4.5625 5.625Z" fill="#263238"/>
<path d="M4.43625 5.34C4.44813 5.35312 4.52313 5.29937 4.62875 5.30062C4.73438 5.30187 4.81063 5.35625 4.8225 5.34375C4.83438 5.33125 4.81563 5.315 4.7825 5.29C4.7375 5.25768 4.68353 5.2402 4.62813 5.24C4.57321 5.23895 4.51937 5.25536 4.47438 5.28687C4.44188 5.31125 4.43063 5.33437 4.43625 5.34Z" fill="#263238"/>
<path d="M5.52313 5.61687C5.52245 5.64242 5.53182 5.66722 5.54924 5.68592C5.56666 5.70462 5.59072 5.71574 5.61625 5.71687C5.62872 5.71807 5.6413 5.71676 5.65325 5.71302C5.6652 5.70927 5.67628 5.70317 5.68584 5.69507C5.69539 5.68697 5.70323 5.67704 5.70888 5.66587C5.71454 5.65469 5.71789 5.64249 5.71875 5.63C5.71927 5.6045 5.70984 5.57979 5.69246 5.56113C5.67507 5.54246 5.6511 5.53129 5.62563 5.53C5.61318 5.52889 5.60063 5.53026 5.58871 5.53404C5.5768 5.53782 5.56575 5.54392 5.55621 5.55201C5.54668 5.56009 5.53884 5.56998 5.53316 5.58112C5.52748 5.59226 5.52407 5.60441 5.52313 5.61687Z" fill="#263238"/>
<path d="M5.47188 5.37375C5.48438 5.38687 5.55938 5.33312 5.66438 5.33437C5.76938 5.33562 5.84625 5.39 5.85813 5.3775C5.87 5.365 5.85188 5.34812 5.81813 5.32375C5.77312 5.29143 5.71916 5.27395 5.66375 5.27375C5.60883 5.2727 5.555 5.28911 5.51 5.32063C5.4775 5.345 5.46625 5.36812 5.47188 5.37375Z" fill="#263238"/>
<path d="M5.07875 6.15C5.02344 6.13205 4.96614 6.12092 4.90813 6.11687C4.88125 6.11375 4.85625 6.10812 4.85188 6.09C4.84991 6.06205 4.85644 6.03416 4.87063 6.01L4.95313 5.80625C5.0675 5.51625 5.15063 5.2775 5.14063 5.2725C5.13063 5.2675 5.02625 5.5 4.91188 5.79L4.83313 5.995C4.81573 6.0273 4.8102 6.06467 4.8175 6.10062C4.82127 6.11018 4.82717 6.11875 4.83475 6.12568C4.84233 6.13262 4.8514 6.13773 4.86125 6.14062C4.87605 6.14508 4.89142 6.1474 4.90688 6.1475C4.9638 6.15598 5.0216 6.15682 5.07875 6.15Z" fill="#263238"/>
<path d="M5.38625 4.96687C5.4 4.99375 5.49063 4.96687 5.60188 4.96687C5.71313 4.96687 5.80625 4.98437 5.81688 4.95687C5.82125 4.94375 5.80188 4.91937 5.76188 4.89437C5.71064 4.8677 5.65336 4.85478 5.59563 4.85687C5.53869 4.85807 5.48308 4.87424 5.43438 4.90375C5.39688 4.92875 5.38 4.95437 5.38625 4.96687Z" fill="#263238"/>
<path d="M4.4375 4.90562C4.45938 4.93 4.54625 4.90562 4.65125 4.90562C4.75625 4.90562 4.84375 4.92437 4.865 4.89937C4.87375 4.8875 4.86 4.86312 4.82188 4.83687C4.7688 4.80814 4.70908 4.79391 4.64875 4.79562C4.58861 4.79518 4.52945 4.81094 4.4775 4.84125C4.44 4.86937 4.4275 4.89375 4.4375 4.90562Z" fill="#263238"/>
<path d="M4.36375 4.68875C4.36375 4.68875 4.55125 4.26188 4.75875 4.16438C5.00875 4.04688 5.11563 4.32312 5.355 4.26C5.59438 4.19687 5.83625 4.08313 6.0775 4.27125C6.3425 4.47688 6.215 4.61687 6.2275 4.92125C6.2775 6.15625 6.49813 6.50813 6.57 5.9275C6.57813 5.865 6.7575 5.81562 6.785 5.5475C6.82375 5.19875 6.84313 4.77562 6.76875 4.52687C6.70625 4.3175 6.58875 4.17187 6.3775 4.01C6.04438 3.75437 5.58188 3.74312 5.2675 3.77C4.95313 3.79687 4.3425 4.15063 4.36375 4.68875Z" fill="#263238"/>
<path d="M6.52688 5.90812C6.52829 5.88309 6.53471 5.85859 6.54576 5.83608C6.55681 5.81357 6.57226 5.79351 6.5912 5.77708C6.61014 5.76064 6.63218 5.74818 6.65602 5.74041C6.67986 5.73265 6.70502 5.72974 6.73 5.73187C6.855 5.74562 6.99938 5.82 6.9875 6.08437C6.96563 6.55312 6.5 6.435 6.49938 6.42125C6.49875 6.4075 6.51625 6.10437 6.52688 5.90812Z" fill="#AE7461"/>
<path d="M6.61063 6.25C6.61063 6.25 6.61875 6.25562 6.6325 6.26312C6.65205 6.27247 6.67448 6.27382 6.695 6.26687C6.74563 6.25125 6.79063 6.17437 6.79688 6.09C6.79998 6.04981 6.79399 6.00944 6.77938 5.97187C6.77517 5.95758 6.76766 5.94447 6.75746 5.93362C6.74725 5.92276 6.73464 5.91446 6.72063 5.90937C6.71128 5.90663 6.70127 5.90719 6.69229 5.91094C6.6833 5.9147 6.67587 5.92142 6.67125 5.93C6.66438 5.9425 6.6675 5.95187 6.665 5.95312C6.6625 5.95437 6.655 5.94437 6.65938 5.925C6.66277 5.91368 6.6698 5.9038 6.67938 5.89687C6.69272 5.88777 6.70907 5.88419 6.725 5.88687C6.74411 5.89156 6.76168 5.9011 6.77603 5.91457C6.79037 5.92804 6.80099 5.94498 6.80688 5.96375C6.82517 6.00517 6.8329 6.05048 6.82938 6.09562C6.82188 6.18937 6.76688 6.27562 6.70438 6.2925C6.69155 6.29552 6.67822 6.29563 6.66534 6.29282C6.65247 6.29001 6.6404 6.28435 6.63 6.27625C6.61063 6.26375 6.61063 6.25062 6.61063 6.25Z" fill="#6F4439"/>
<path d="M6.53 5C6.47177 5.04579 6.40302 5.0763 6.33 5.08875C6.29343 5.09376 6.25627 5.08539 6.22538 5.06518C6.19448 5.04497 6.17193 5.01427 6.16188 4.97875C6.15688 4.94625 6.165 4.90875 6.14438 4.88313C6.12375 4.8575 6.07188 4.86125 6.0325 4.865C5.89563 4.8775 5.73875 4.725 5.70563 4.59187C5.68705 4.61642 5.66006 4.63324 5.62985 4.63913C5.59963 4.64501 5.56831 4.63953 5.54188 4.62375C5.49906 4.59641 5.46122 4.56195 5.43 4.52187C5.41218 4.49597 5.38827 4.47484 5.36037 4.46035C5.33247 4.44585 5.30144 4.43844 5.27 4.43875C5.23697 4.44971 5.20279 4.45684 5.16813 4.46C5.10563 4.45375 5.0775 4.38125 5.06875 4.32C5.06 4.25875 5.05375 4.1875 5.0025 4.15312C4.95125 4.11875 4.89188 4.13875 4.835 4.14625C4.77813 4.15375 4.705 4.14 4.69125 4.08375C4.68894 4.06884 4.68969 4.05361 4.69345 4.039C4.69721 4.02439 4.70391 4.01069 4.71313 3.99875C4.75203 3.94261 4.80871 3.90122 4.87403 3.88126C4.93935 3.8613 5.00949 3.86394 5.07313 3.88875C5.09737 3.81107 5.14409 3.74231 5.20738 3.69116C5.27067 3.64 5.34769 3.60874 5.42873 3.60132C5.50977 3.59389 5.59119 3.61064 5.66272 3.64945C5.73424 3.68826 5.79267 3.74739 5.83063 3.81937C5.881 3.77482 5.94139 3.7431 6.00666 3.72691C6.07193 3.71071 6.14015 3.71052 6.20551 3.72636C6.27086 3.74219 6.33143 3.77358 6.38205 3.81785C6.43267 3.86212 6.47185 3.91796 6.49625 3.98062C6.55393 3.9661 6.61462 3.96889 6.67072 3.98867C6.72681 4.00845 6.77584 4.04432 6.81165 4.09181C6.84747 4.1393 6.86849 4.1963 6.87209 4.25567C6.87569 4.31504 6.8617 4.37416 6.83188 4.42562C6.87488 4.44814 6.9115 4.48113 6.93838 4.52155C6.96525 4.56197 6.9815 4.60851 6.98563 4.65687C6.98563 4.75437 6.89 4.84937 6.79813 4.82312C6.81856 4.86182 6.82304 4.90698 6.8106 4.94893C6.79817 4.99089 6.76981 5.02631 6.73159 5.04762C6.69337 5.06894 6.64833 5.07445 6.6061 5.06298C6.56387 5.05151 6.52781 5.02397 6.50563 4.98625" fill="#263238"/>
<path d="M5.03688 4.02687C5.03688 4.02687 5.03688 4.03 5.03688 4.03562C5.03621 4.04394 5.03621 4.0523 5.03688 4.06062C5.0428 4.09237 5.05377 4.12297 5.06938 4.15125C5.09493 4.19617 5.13041 4.23465 5.17313 4.26375C5.22905 4.30289 5.29615 4.32285 5.36438 4.32062L5.36063 4.31062C5.34595 4.35305 5.34864 4.39956 5.36813 4.44C5.38878 4.48226 5.41529 4.5214 5.44688 4.55625C5.46217 4.57618 5.47956 4.59441 5.49875 4.61062C5.52063 4.62607 5.54594 4.63594 5.5725 4.63937C5.60013 4.64374 5.6284 4.64129 5.65487 4.63225C5.68133 4.62321 5.70519 4.60785 5.72438 4.5875L5.70688 4.58187C5.71254 4.63029 5.72818 4.67701 5.75282 4.71907C5.77745 4.76113 5.81054 4.79763 5.85 4.82625C5.89418 4.85956 5.94781 4.87795 6.00313 4.87875C6.05534 4.87688 6.10688 4.86632 6.15563 4.8475L6.14313 4.84187C6.1668 4.89883 6.20415 4.94906 6.25188 4.98812C6.27397 5.00742 6.30003 5.02162 6.32822 5.02972C6.35641 5.03782 6.38604 5.03963 6.415 5.035C6.46433 5.02501 6.50966 5.00081 6.54542 4.96539C6.58118 4.92996 6.6058 4.88486 6.61625 4.83562L6.60563 4.84C6.6546 4.86685 6.71128 4.87611 6.76625 4.86625C6.80729 4.85918 6.84606 4.84247 6.87938 4.8175C6.90045 4.802 6.91847 4.78271 6.9325 4.76062C6.93775 4.75333 6.94196 4.74533 6.945 4.73687C6.92611 4.7655 6.90243 4.79066 6.875 4.81125C6.84208 4.8339 6.80449 4.84886 6.765 4.855C6.71177 4.8635 6.65723 4.85335 6.61063 4.82625H6.60438V4.83625C6.59418 4.88261 6.57074 4.92501 6.5369 4.9583C6.50306 4.99158 6.46027 5.01432 6.41375 5.02375C6.38732 5.02778 6.36032 5.02589 6.3347 5.01821C6.30908 5.01054 6.28549 4.99727 6.26563 4.97937C6.22072 4.94211 6.18554 4.8945 6.16313 4.84062V4.83187H6.15438C6.10776 4.84961 6.05859 4.85974 6.00875 4.86187C5.9574 4.86102 5.90767 4.84372 5.86688 4.8125C5.82897 4.78575 5.79709 4.75135 5.7733 4.71152C5.74951 4.67169 5.73433 4.62731 5.72875 4.58125V4.55937L5.71375 4.57625C5.69682 4.59415 5.67582 4.6077 5.65254 4.61575C5.62926 4.6238 5.60437 4.62612 5.58 4.6225C5.55762 4.61875 5.5363 4.61022 5.5175 4.5975C5.49955 4.58212 5.48322 4.56495 5.46875 4.54625C5.43808 4.51292 5.4122 4.47548 5.39188 4.435C5.37393 4.39842 5.3708 4.35633 5.38313 4.3175L5.3875 4.30625H5.37563C5.31055 4.30952 5.2462 4.2913 5.1925 4.25437C5.15096 4.2271 5.11613 4.19077 5.09063 4.14812C5.06521 4.11147 5.04697 4.07032 5.03688 4.02687Z" fill="#455A64"/>
<path d="M5.09688 6.51375C5.09688 6.49625 5.215 6.52187 5.31875 6.44187C5.4225 6.36187 5.4375 6.23687 5.45375 6.23937C5.47 6.24187 5.47 6.27187 5.46 6.32375C5.4454 6.39121 5.40785 6.45151 5.35375 6.49437C5.30066 6.53599 5.23324 6.55486 5.16625 6.54687C5.12 6.53812 5.095 6.51875 5.09688 6.51375Z" fill="#263238"/>
<path d="M3.75875 11.3306L3.88125 10.07L7.445 10.0588L7.82688 14.1462L3.51563 14.315L3.75875 11.3306Z" fill="#32CD32"/>
<path d="M3.88875 8.20687C3.86313 8.24375 4.0875 9.93687 4.0875 9.93687L4.65 9.915L4.4625 7.99C4.4625 7.99 4.03813 7.99 3.88875 8.20687Z" fill="#32CD32"/>
<path d="M7.44063 8.0925C7.47625 8.12 7.26063 9.94812 7.26063 9.94812L6.69813 9.92625L6.86063 7.93437C6.86063 7.93437 7.19563 7.90312 7.44063 8.0925Z" fill="#32CD32"/>
<path d="M4.74438 25.4069L4.79813 26.7388C4.79813 26.7388 3.46188 27.2387 3.4475 27.4844L6.0325 27.4788L6.03875 25.4013L4.74438 25.4069Z" fill="#263238"/>
<path d="M6.02938 27.4788L6.02188 27.2694L3.54813 27.3531C3.54813 27.3531 3.43313 27.4031 3.44625 27.4844L6.02938 27.4788Z" fill="#455A64"/>
<path d="M4.79188 26.7331C4.79188 26.7456 4.85438 26.7513 4.91688 26.7913C4.97938 26.8313 5.0125 26.885 5.02375 26.88C5.035 26.875 5.01625 26.8019 4.94 26.755C4.86375 26.7081 4.78875 26.7213 4.79188 26.7331Z" fill="white"/>
<path d="M4.49688 26.8612C4.49375 26.8731 4.54875 26.8944 4.59188 26.9481C4.635 27.0019 4.64688 27.0575 4.65938 27.0569C4.67188 27.0562 4.68 26.985 4.62563 26.92C4.57125 26.855 4.49688 26.8487 4.49688 26.8612Z" fill="white"/>
<path d="M4.32875 27.19C4.34063 27.19 4.35813 27.1275 4.32875 27.0606C4.29938 26.9938 4.23688 26.9637 4.23125 26.9744C4.22563 26.985 4.2625 27.0219 4.28875 27.0788C4.315 27.1356 4.31625 27.1888 4.32875 27.19Z" fill="white"/>
<path d="M4.79188 26.4206C4.7975 26.4325 4.85438 26.415 4.92688 26.4206C4.99938 26.4263 5.05188 26.4481 5.06 26.4369C5.06813 26.4256 5.01313 26.3813 4.92875 26.3744C4.84438 26.3675 4.78563 26.4113 4.79188 26.4206Z" fill="white"/>
<path d="M7.72313 25.2475L7.86313 26.8538L7.61063 28.1562C7.60625 28.1785 7.60649 28.2013 7.61132 28.2234C7.61616 28.2455 7.62549 28.2664 7.63874 28.2848C7.65198 28.3031 7.66887 28.3185 7.68833 28.3301C7.70779 28.3416 7.72942 28.349 7.75188 28.3519C7.77795 28.3553 7.80446 28.3523 7.82915 28.3433C7.85385 28.3342 7.87601 28.3194 7.89375 28.3C8.12438 28.05 8.9675 27.1206 8.95063 27.0031C8.93063 26.8681 8.915 25.2994 8.915 25.2994L7.72313 25.2475Z" fill="#263238"/>
<path d="M7.74875 28.3519L8.94063 26.895L8.945 26.9631C8.94864 27.022 8.93137 27.0802 8.89625 27.1275C8.80188 27.2525 8.53313 27.5981 7.89625 28.3C7.8779 28.32 7.85491 28.3352 7.82929 28.3443C7.80368 28.3533 7.77624 28.3559 7.74938 28.3519H7.74875Z" fill="#455A64"/>
<path d="M8.07125 27.625C8.03268 27.5738 7.98108 27.5338 7.92184 27.5093C7.86259 27.4848 7.79786 27.4766 7.73438 27.4856C7.73438 27.4819 7.7525 27.4681 7.79 27.46C7.83911 27.4516 7.88959 27.4572 7.93563 27.4762C7.98208 27.4947 8.02192 27.5268 8.05 27.5681C8.07125 27.6 8.075 27.6237 8.07125 27.625Z" fill="white"/>
<path d="M7.97063 27.8481C7.92295 27.8244 7.87391 27.8035 7.82375 27.7856C7.77108 27.7791 7.71808 27.7755 7.665 27.775C7.68883 27.7581 7.71634 27.7472 7.74526 27.743C7.77417 27.7389 7.80365 27.7417 7.83125 27.7512C7.92813 27.775 7.97875 27.8431 7.97063 27.8481Z" fill="white"/>
<path d="M8.26688 27.3356C8.19625 27.2939 8.12248 27.2578 8.04625 27.2275C7.9175 27.185 7.805 27.1981 7.80438 27.1869C7.88763 27.1651 7.97537 27.1676 8.05728 27.1939C8.1392 27.2203 8.21191 27.2694 8.26688 27.3356Z" fill="white"/>
<path d="M8.265 26.8438C8.26125 26.8538 8.17 26.8219 8.05438 26.8256C7.93875 26.8294 7.84875 26.8625 7.84438 26.8525C7.90713 26.8131 7.9794 26.7915 8.05348 26.79C8.12756 26.7884 8.20066 26.807 8.265 26.8438Z" fill="white"/>
<path d="M8.25 26.5263C8.17858 26.5079 8.10497 26.4995 8.03125 26.5012C7.95843 26.5138 7.88773 26.5365 7.82125 26.5687C7.82125 26.5656 7.835 26.5444 7.87063 26.52C7.91782 26.4897 7.97164 26.4712 8.0275 26.4662C8.08346 26.4605 8.13998 26.468 8.1925 26.4881C8.23563 26.505 8.2525 26.5225 8.25 26.5263Z" fill="white"/>
<path d="M3.39563 14.6094C3.27089 15.1614 3.22877 15.7288 3.27063 16.2931C3.29813 16.6506 4.50563 26.5487 4.50563 26.5487H6.13563L5.6775 17.2463L5.81125 17.275C5.81125 17.275 6.70063 21.2425 6.77375 21.885C6.83625 22.4625 7.58625 26.6575 7.58625 26.6575L9.07625 26.6744L8.60063 21.1256L8.04813 15.8019L7.83938 14.2519L3.39563 14.6094Z" fill="#32CD32"/>
<path d="M5.29813 15.3194C5.30446 15.3446 5.30823 15.3703 5.30938 15.3962C5.315 15.4525 5.32125 15.5213 5.32938 15.6056C5.34625 15.7819 5.37063 16.0263 5.4025 16.2931C5.43438 16.56 5.46875 16.8044 5.49375 16.9806C5.50563 17.0631 5.51563 17.1331 5.52375 17.1887C5.52885 17.214 5.53115 17.2398 5.53063 17.2656C5.52136 17.2414 5.51486 17.2163 5.51125 17.1906C5.50063 17.1425 5.48688 17.0719 5.47125 16.9844C5.44 16.8094 5.4025 16.5669 5.37 16.2969C5.3375 16.0269 5.3175 15.7825 5.3075 15.6056C5.30188 15.5169 5.29875 15.445 5.2975 15.395C5.29494 15.3698 5.29515 15.3445 5.29813 15.3194Z" fill="#263238"/>
<path d="M4.52438 10.3262C4.52438 10.3534 4.51631 10.38 4.5012 10.4026C4.4861 10.4253 4.46462 10.4429 4.4395 10.4533C4.41437 10.4637 4.38672 10.4664 4.36005 10.4611C4.33338 10.4558 4.30888 10.4427 4.28965 10.4235C4.27042 10.4042 4.25732 10.3797 4.25202 10.3531C4.24671 10.3264 4.24944 10.2988 4.25984 10.2736C4.27025 10.2485 4.28787 10.227 4.31049 10.2119C4.3331 10.1968 4.35968 10.1887 4.38688 10.1887C4.40496 10.1887 4.42287 10.1922 4.43959 10.199C4.45631 10.2059 4.4715 10.2161 4.48429 10.2288C4.49707 10.2416 4.5072 10.2568 4.51408 10.2735C4.52096 10.2903 4.52446 10.3082 4.52438 10.3262Z" fill="#263238"/>
<path d="M7.12063 10.3263C7.12063 10.3535 7.11255 10.3801 7.09741 10.4027C7.08227 10.4253 7.06076 10.443 7.0356 10.4533C7.01044 10.4637 6.98276 10.4664 6.95607 10.4611C6.92938 10.4557 6.90488 10.4425 6.88568 10.4233C6.86647 10.404 6.85343 10.3794 6.84819 10.3527C6.84296 10.326 6.84577 10.2983 6.85627 10.2732C6.86678 10.2481 6.8845 10.2267 6.90719 10.2116C6.92989 10.1966 6.95653 10.1886 6.98375 10.1888C7.00178 10.1888 7.01963 10.1923 7.03628 10.1992C7.05292 10.2061 7.06804 10.2163 7.08076 10.2291C7.09348 10.2418 7.10355 10.257 7.11039 10.2737C7.11723 10.2904 7.12071 10.3082 7.12063 10.3263Z" fill="#263238"/>
<path d="M4.67688 9.915H4.0625V10.0219H4.67688V9.915Z" fill="#263238"/>
<path d="M4.61063 10.0069C4.61047 10.0572 4.60224 10.1072 4.58625 10.155C4.57231 10.2081 4.55283 10.2597 4.52813 10.3087C4.51346 10.3386 4.49451 10.3662 4.47188 10.3906C4.45957 10.4055 4.44434 10.4176 4.42714 10.4263C4.40994 10.435 4.39113 10.4401 4.37188 10.4412C4.35257 10.4402 4.33372 10.435 4.31658 10.4261C4.29944 10.4171 4.28441 10.4046 4.2725 10.3894C4.25105 10.3641 4.2326 10.3364 4.2175 10.3069C4.19212 10.258 4.1712 10.207 4.155 10.1544C4.13685 10.1073 4.12712 10.0573 4.12625 10.0069C4.13 10.0069 4.145 10.0612 4.17688 10.1469C4.19422 10.1968 4.21511 10.2455 4.23938 10.2925C4.25399 10.3194 4.2716 10.3446 4.29188 10.3675C4.30091 10.3791 4.31222 10.3888 4.32512 10.3959C4.33802 10.403 4.35223 10.4073 4.36688 10.4087C4.38179 10.4075 4.39631 10.4033 4.40961 10.3965C4.42291 10.3896 4.43473 10.3802 4.44438 10.3687C4.46538 10.3465 4.48325 10.3215 4.4975 10.2944C4.52241 10.2477 4.54332 10.199 4.56 10.1487C4.57412 10.1005 4.59102 10.0531 4.61063 10.0069Z" fill="#263238"/>
<path d="M7.2875 9.91125H6.67313V10.0181H7.2875V9.91125Z" fill="#263238"/>
<path d="M7.22 10.0037C7.21984 10.0541 7.21161 10.1041 7.19563 10.1519C7.18157 10.2048 7.16209 10.2561 7.1375 10.305C7.12284 10.3349 7.10389 10.3625 7.08125 10.3869C7.06894 10.4017 7.05372 10.4139 7.03651 10.4226C7.01931 10.4313 7.0005 10.4364 6.98125 10.4375C6.96195 10.4364 6.94309 10.4313 6.92595 10.4223C6.90882 10.4134 6.89379 10.4009 6.88188 10.3856C6.86043 10.3603 6.84197 10.3327 6.82688 10.3031C6.8015 10.2543 6.78058 10.2032 6.76438 10.1506C6.74629 10.1037 6.73656 10.054 6.73563 10.0037C6.73938 10.0037 6.75438 10.0575 6.78625 10.1431C6.80348 10.1931 6.82437 10.2418 6.84875 10.2887C6.86351 10.3158 6.88111 10.3411 6.90125 10.3644C6.91036 10.376 6.92179 10.3856 6.93481 10.3926C6.94782 10.3996 6.96215 10.4038 6.97688 10.405C6.99172 10.4038 7.00616 10.3997 7.01937 10.3928C7.03257 10.3859 7.04427 10.3765 7.05375 10.365C7.07473 10.3429 7.09261 10.3181 7.10688 10.2913C7.13182 10.2444 7.15272 10.1954 7.16938 10.145C7.18328 10.0969 7.20019 10.0497 7.22 10.0037Z" fill="#263238"/>
<path d="M4.46188 11.53C4.46188 11.5162 4.64938 11.15 4.86063 11.0706C5.07188 10.9913 5.25813 11.0588 5.42875 11.1225L5.84438 11.3213L5.99375 11.3112L6.43125 11.5612L5.91438 12.3494L4.46188 11.53Z" fill="#455A64"/>
<path d="M4.38813 12.6681C4.37875 12.6788 4.11813 12.9894 3.9975 12.99C3.87688 12.9906 4.95063 13.5831 4.95063 13.5831C4.91167 13.5478 4.88225 13.5032 4.86509 13.4535C4.84794 13.4038 4.84361 13.3506 4.8525 13.2987C4.8818 13.166 4.93889 13.041 5.02 12.9319L5.81625 12.2794L4.93063 11.785C4.93063 11.785 4.59125 12.42 4.38813 12.6681Z" fill="#455A64"/>
<path d="M5.20706 13.6029L3.84686 12.8176L3.52218 13.38L4.88238 14.1653L5.20706 13.6029Z" fill="#455A64"/>
<path d="M5.98125 12.2594L6.82188 12.5794L7.08688 12.1369L6.3725 11.6388C6.3725 11.6388 6.1675 11.5975 6.03313 11.8325C5.99642 11.8966 5.97292 11.9674 5.96401 12.0407C5.9551 12.114 5.96096 12.1884 5.98125 12.2594Z" fill="#E0E0E0"/>
<path d="M6.78375 12.2638C6.7175 12.3888 6.73375 12.5306 6.81938 12.5763C6.905 12.6219 7.02875 12.5544 7.095 12.4275C7.16125 12.3006 7.14563 12.1606 7.06 12.115C6.97438 12.0694 6.85063 12.1388 6.78375 12.2638Z" fill="#E0E0E0"/>
<path d="M6.99063 12.365C6.96188 12.4338 6.97563 12.505 7.02188 12.525C7.06813 12.545 7.12938 12.5044 7.15813 12.4363C7.18688 12.3681 7.17313 12.2963 7.12688 12.2763C7.08063 12.2563 7.01938 12.2969 6.99063 12.365Z" fill="#263238"/>
<path d="M7.0575 12.455C7.0575 12.4606 7.735 12.7506 7.735 12.7506L7.77 12.6694L7.11875 12.3569C7.10789 12.3585 7.09752 12.3625 7.08835 12.3686C7.07917 12.3746 7.07141 12.3826 7.0656 12.3919C7.05978 12.4012 7.05605 12.4117 7.05465 12.4226C7.05325 12.4334 7.05423 12.4445 7.0575 12.455Z" fill="#263238"/>
<path d="M7.06188 12.1175C7.06188 12.1225 7.03125 12.1319 6.98813 12.16C6.93187 12.1962 6.88701 12.2475 6.85875 12.3081C6.83266 12.3698 6.82444 12.4376 6.835 12.5038C6.84259 12.5311 6.84865 12.5589 6.85313 12.5869C6.85313 12.5869 6.8275 12.5619 6.8125 12.5081C6.7936 12.4373 6.79954 12.3621 6.82933 12.2951C6.85913 12.2281 6.91098 12.1734 6.97625 12.14C7.02625 12.115 7.06125 12.1138 7.06188 12.1175Z" fill="#263238"/>
<path d="M6.3725 11.6388C6.33157 11.6428 6.29103 11.6502 6.25125 11.6606C6.16044 11.6988 6.08544 11.767 6.03875 11.8538C5.99573 11.9425 5.97431 12.0402 5.97625 12.1388C5.97625 12.2156 5.99063 12.2638 5.98563 12.2638C5.96339 12.2259 5.95214 12.1826 5.95313 12.1388C5.95016 12.0924 5.95226 12.0459 5.95938 12C5.96683 11.9426 5.98484 11.8871 6.0125 11.8363C6.04186 11.7867 6.079 11.7421 6.1225 11.7044C6.15895 11.6735 6.20156 11.6507 6.2475 11.6375C6.28818 11.6242 6.33209 11.6247 6.3725 11.6388Z" fill="#263238"/>
<path d="M5.84438 11.3306C5.75575 11.3862 5.67002 11.4463 5.5875 11.5106C5.51241 11.5837 5.44127 11.6606 5.37438 11.7413C5.41519 11.6411 5.48131 11.5532 5.56625 11.4862C5.64419 11.4115 5.73993 11.358 5.84438 11.3306Z" fill="#263238"/>
<path d="M2.05375 11.0662C2.05813 11.0969 1.6075 12.0469 1.70125 12.4506C1.795 12.8544 2.34875 13.1675 2.71688 13.0825C3.085 12.9975 3.89375 12.6112 3.89375 12.6112L3.95188 11.83L2.88938 11.8356L2.96563 11.5994L2.05375 11.0662Z" fill="#AE7461"/>
<path d="M5.92875 12.5344C5.87314 12.4221 5.80387 12.3171 5.7225 12.2219C5.60813 12.0969 5.16438 11.8106 4.98125 11.7569C4.79813 11.7031 3.95188 11.8325 3.95188 11.8325L3.89375 12.6138L4.08688 12.6731C4.19347 12.7656 4.32302 12.8275 4.46188 12.8525C4.67625 12.8831 4.97563 13.1025 5.03313 13.0888C5.09063 13.075 5.13813 12.9513 5.13813 12.9513C5.13813 12.9513 5.33563 13.0469 5.35875 12.8263C5.35875 12.8263 5.53188 12.7875 5.52688 12.665C5.52188 12.5425 5.22625 12.2438 5.22625 12.2438C5.35582 12.2975 5.47477 12.3739 5.5775 12.4694C5.69875 12.6 5.83813 12.6981 5.8825 12.6638C5.91032 12.6381 5.92731 12.6028 5.93 12.565" fill="#AE7461"/>
<path d="M5.38063 12.8175C5.3725 12.8231 5.3 12.7294 5.19313 12.6338C5.08625 12.5381 4.98188 12.4763 4.98688 12.4681C5.15445 12.5368 5.29403 12.6598 5.38313 12.8175H5.38063Z" fill="#6F4439"/>
<path d="M5.18438 12.9925C5.12321 12.9304 5.05785 12.8725 4.98875 12.8194C4.93 12.7794 4.8675 12.7531 4.83 12.7194C4.7925 12.6856 4.78 12.6569 4.78375 12.6569C4.7875 12.6569 4.80438 12.6788 4.84625 12.7044C4.88813 12.73 4.94625 12.7531 5.00938 12.7956C5.08655 12.8417 5.14765 12.9105 5.18438 12.9925Z" fill="#6F4439"/>
<path d="M2.8775 11.8463C2.83498 11.8328 2.79324 11.8169 2.7525 11.7987C2.65202 11.7631 2.54657 11.7435 2.44 11.7406C2.33425 11.7383 2.22878 11.7526 2.1275 11.7831C2.08661 11.7991 2.04488 11.8129 2.0025 11.8244C2.03763 11.796 2.07797 11.7748 2.12125 11.7619C2.22397 11.7239 2.33301 11.7058 2.4425 11.7087C2.55183 11.7111 2.65965 11.7347 2.76 11.7781C2.80317 11.7931 2.84307 11.8162 2.8775 11.8463Z" fill="#6F4439"/>
<path d="M7.30438 14.8556C7.29938 14.9288 7.095 18.785 7.27938 18.955C7.46375 19.125 8.67688 18.7956 8.69313 18.8031C8.70938 18.8106 9.61938 17.2581 9.45563 16.91C9.29188 16.5619 8.13063 14.8769 8.13063 14.8769L7.965 14.4188L7.30438 14.8556Z" fill="#455A64"/>
<path d="M3.37875 14.6737C3.35063 14.6837 2.93063 15.6737 2.93063 15.6737C2.93063 15.6737 1.87688 16.42 1.88625 16.6631C1.89563 16.9063 2.82813 18.7962 3.13625 18.775C3.44438 18.7537 3.46875 18.1725 3.46875 18.1725L3.51563 14.8263L3.37875 14.6737Z" fill="#455A64"/>
<path d="M8.07261 14.1371L3.33686 14.3223L3.37162 15.211L8.10737 15.0258L8.07261 14.1371Z" fill="#455A64"/>
<path d="M3.40688 15.27C3.39116 15.2288 3.38086 15.1857 3.37625 15.1419C3.36188 15.0619 3.34625 14.9506 3.33375 14.8294C3.32125 14.7081 3.31563 14.5938 3.31375 14.5119C3.30991 14.4679 3.3118 14.4235 3.31938 14.38C3.32813 14.38 3.34188 14.58 3.36625 14.8263C3.39063 15.0725 3.41625 15.2688 3.40688 15.27Z" fill="#263238"/>
<path d="M5.56188 15.1388C5.53064 14.9946 5.50976 14.8484 5.49938 14.7013C5.47749 14.5541 5.46642 14.4056 5.46625 14.2569C5.4975 14.4021 5.51839 14.5493 5.52875 14.6975C5.55012 14.8436 5.56119 14.9911 5.56188 15.1388Z" fill="#263238"/>
<path d="M9.44625 16.9944C9.43549 16.9987 9.42442 17.0023 9.41313 17.005C9.39125 17.0112 9.35938 17.0194 9.31688 17.0287C9.19841 17.0556 9.07806 17.0734 8.95688 17.0819C8.77557 17.0963 8.59317 17.0761 8.41938 17.0225C8.20363 16.9574 8.0162 16.8213 7.8875 16.6362C7.76483 16.4514 7.66908 16.25 7.60313 16.0381C7.53625 15.8463 7.48313 15.6712 7.4425 15.5231C7.40188 15.375 7.37313 15.2544 7.355 15.1706C7.34563 15.1281 7.33938 15.0956 7.335 15.0737C7.33216 15.0625 7.33069 15.051 7.33063 15.0394C7.33601 15.0496 7.33981 15.0605 7.34188 15.0719C7.34813 15.0975 7.35688 15.1287 7.3675 15.1675C7.38938 15.25 7.42125 15.37 7.465 15.5169C7.50875 15.6637 7.56375 15.8375 7.63188 16.0281C7.69816 16.2365 7.79303 16.4346 7.91375 16.6169C7.97857 16.7087 8.0582 16.7892 8.14938 16.855C8.23491 16.9153 8.32911 16.9623 8.42875 16.9944C8.59913 17.047 8.77766 17.0682 8.95563 17.0569C9.07601 17.0506 9.19585 17.0364 9.31438 17.0144L9.41188 16.9969C9.42313 16.9942 9.43473 16.9934 9.44625 16.9944Z" fill="#263238"/>
<path d="M9.63313 10.6256C9.67188 10.7187 10.1331 11.6256 10.1581 12.0531C10.1831 12.4806 9.37813 14.9394 9.37813 14.9394L8.69063 14.5881L9.0975 12.1037L8.69625 11.2912L9.63313 10.6256Z" fill="#AE7461"/>
<path d="M8.13063 14.8769C8.14688 14.8769 8.555 14.8325 8.69313 14.5881C8.83125 14.3437 9.38063 14.9394 9.38063 14.9394C9.38063 14.9394 9.39563 15.2469 9.3275 15.4219C9.25938 15.5969 9.19875 15.7175 9.19875 15.7175C9.19875 15.7175 9.14875 16.0794 9.10875 16.155C9.06875 16.2306 8.86938 16.4338 8.81563 16.4088C8.76188 16.3838 8.7075 16.3463 8.76125 16.2838C8.815 16.2213 8.94875 16.0881 8.94875 16.0394C8.93273 15.9514 8.91186 15.8644 8.88625 15.7787C8.88625 15.7787 8.64938 16.46 8.5925 16.5163C8.53729 16.5552 8.47241 16.5781 8.405 16.5825C8.405 16.5825 8.28563 16.695 8.20375 16.655C8.12188 16.615 8.195 16.435 8.195 16.435C8.195 16.435 8.36 15.7025 8.35938 15.6806C8.35875 15.6588 8.22125 15.7344 8.20063 15.8913C8.18 16.0481 8.20813 16.3537 8.07563 16.3537C7.94313 16.3537 7.97875 15.9269 7.9825 15.7494C7.98625 15.5719 8.06 15.5256 8.09813 15.4112C8.13625 15.2969 8.13063 14.8769 8.13063 14.8769Z" fill="#AE7461"/>
<path d="M22.3484 1.80281C22.374 1.61531 22.1115 1.46343 21.9109 1.44781C21.8171 1.44031 21.719 1.45468 21.6296 1.42343C21.4365 1.35593 21.3596 1.10656 21.1709 1.02718C21.0302 0.964683 20.8677 1.02031 20.7334 1.08968C20.599 1.15906 20.4615 1.24531 20.309 1.25468C20.1765 1.26343 20.0321 1.21406 19.9159 1.27906C19.8296 1.32718 19.784 1.42718 19.7046 1.48593C19.6215 1.53724 19.5254 1.56329 19.4277 1.56093C19.3306 1.55837 19.2339 1.57427 19.1427 1.60781C19.0975 1.62546 19.0593 1.6573 19.0337 1.69855C19.0081 1.73979 18.9966 1.78821 19.0009 1.83656L22.3484 1.80281Z" fill="#32CD32"/>
<path d="M3.34837 7.80281C3.374 7.61531 3.1115 7.46343 2.91087 7.44781C2.81712 7.44031 2.719 7.45468 2.62962 7.42343C2.4365 7.35593 2.35962 7.10656 2.17087 7.02718C2.03025 6.96468 1.86775 7.02031 1.73337 7.08968C1.599 7.15906 1.4615 7.24531 1.309 7.25468C1.1765 7.26343 1.03212 7.21406 0.915871 7.27906C0.829621 7.32718 0.783996 7.42718 0.704621 7.48593C0.621548 7.53724 0.525356 7.56329 0.427746 7.56093C0.330635 7.55837 0.23392 7.57427 0.142746 7.60781C0.0975399 7.62546 0.0592768 7.6573 0.0336969 7.69855C0.00811694 7.73979 -0.0034008 7.78821 0.000871177 7.83656L3.34837 7.80281Z" fill="#32CD32"/>
<path d="M3.6339 2.63093C3.6539 2.48468 3.4464 2.36468 3.29265 2.35218C3.21838 2.3549 3.14406 2.34839 3.0714 2.3328C2.91952 2.2803 2.8589 2.0828 2.71077 2.0203C2.60015 1.97343 2.47265 2.0153 2.36515 2.06905C2.25765 2.1228 2.15202 2.19405 2.03202 2.19905C1.92765 2.2053 1.8139 2.16655 1.71952 2.2178C1.65202 2.25593 1.6164 2.33405 1.55327 2.3803C1.48813 2.42086 1.41247 2.44129 1.33577 2.43905C1.25934 2.43731 1.18325 2.44981 1.1114 2.47593C1.07588 2.49018 1.04593 2.51553 1.02599 2.54819C1.00606 2.58085 0.997209 2.61908 1.00077 2.65718L3.6339 2.63093Z" fill="#F5F5F5"/>
<path d="M20.6339 7.63093C20.6539 7.48468 20.4464 7.36468 20.2926 7.35218C20.2184 7.3549 20.1441 7.34839 20.0714 7.3328C19.9195 7.2803 19.8589 7.0828 19.7108 7.0203C19.6001 6.97343 19.4726 7.0153 19.3651 7.06905C19.2576 7.1228 19.152 7.19405 19.032 7.19905C18.9276 7.2053 18.8139 7.16655 18.7195 7.2178C18.652 7.25593 18.6164 7.33405 18.5533 7.3803C18.4881 7.42086 18.4125 7.44129 18.3358 7.43905C18.2593 7.43731 18.1832 7.44981 18.1114 7.47593C18.0759 7.49018 18.0459 7.51553 18.026 7.54819C18.0061 7.58085 17.9972 7.61908 18.0008 7.65718L20.6339 7.63093Z" fill="#F5F5F5"/>
<path d="M28.6339 3.63093C28.6539 3.48468 28.4464 3.36468 28.2926 3.35218C28.2184 3.3549 28.1441 3.34839 28.0714 3.3328C27.9195 3.2803 27.8589 3.0828 27.7108 3.0203C27.6001 2.97343 27.4726 3.0153 27.3651 3.06905C27.2576 3.1228 27.152 3.19405 27.032 3.19905C26.9276 3.2053 26.8139 3.16655 26.7195 3.2178C26.652 3.25593 26.6164 3.33405 26.5533 3.3803C26.4881 3.42086 26.4125 3.44129 26.3358 3.43905C26.2593 3.43731 26.1832 3.44981 26.1114 3.47593C26.0759 3.49018 26.0459 3.51553 26.026 3.54819C26.0061 3.58085 25.9972 3.61908 26.0008 3.65718L28.6339 3.63093Z" fill="#F5F5F5"/>
</svg>
